<?xml version="1.0" standalone="no"?>
<!DOCTYPE svg PUBLIC "-//W3C//DTD SVG 1.1//EN" "http://www.w3.org/Graphics/SVG/1.1/DTD/svg11.dtd" >
<!--
2013-9-30: Created.
-->
<svg>
<metadata>
Created by iconfont
</metadata>
<defs>

<font id="iconfont" horiz-adv-x="1024" >
  <font-face
    font-family="iconfont"
    font-weight="500"
    font-stretch="normal"
    units-per-em="1024"
    ascent="896"
    descent="-128"
  />
    <missing-glyph />
    
    <glyph glyph-name="x" unicode="x" horiz-adv-x="1001"
d="M281 543q-27 -1 -53 -1h-83q-18 0 -36.5 -6t-32.5 -18.5t-23 -32t-9 -45.5v-76h912v41q0 16 -0.5 30t-0.5 18q0 13 -5 29t-17 29.5t-31.5 22.5t-49.5 9h-133v-97h-438v97zM955 310v-52q0 -23 0.5 -52t0.5 -58t-10.5 -47.5t-26 -30t-33 -16t-31.5 -4.5q-14 -1 -29.5 -0.5
t-29.5 0.5h-32l-45 128h-439l-44 -128h-29h-34q-20 0 -45 1q-25 0 -41 9.5t-25.5 23t-13.5 29.5t-4 30v167h911zM163 247q-12 0 -21 -8.5t-9 -21.5t9 -21.5t21 -8.5q13 0 22 8.5t9 21.5t-9 21.5t-22 8.5zM316 123q-8 -26 -14 -48q-5 -19 -10.5 -37t-7.5 -25t-3 -15t1 -14.5
t9.5 -10.5t21.5 -4h37h67h81h80h64h36q23 0 34 12t2 38q-5 13 -9.5 30.5t-9.5 34.5q-5 19 -11 39h-368zM336 498v228q0 11 2.5 23t10 21.5t20.5 15.5t34 6h188q31 0 51.5 -14.5t20.5 -52.5v-227h-327z" />
    

    
    <glyph glyph-name="weixin" unicode="&#58881;" d="M676.4641 471.0081c11.3468 0 22.5756-0.8124 33.7085-2.0586C679.8779 610.0098 529.072 714.8168 356.9226 714.8168 164.4582 714.8168 6.8137 583.6567 6.8137 417.0826c0-96.1848 52.4486-175.1043 140.0968-236.3607l-35.0167-105.3126 122.392 61.3644c43.7921-8.6541 78.9327-17.5801 122.6349-17.5801 10.987 0 21.8771 0.5486 32.6852 1.3951-6.8376 23.3921-10.8071 47.9045-10.8071 73.3603C378.8007 346.8982 510.15 471.0081 676.4641 471.0081zM485.7476 573.0409c29.894 0 54.1265-24.2336 54.1265-54.1283s-24.2326-54.1273-54.1265-54.1273c-29.896 0-54.1285 24.2336-54.1285 54.1273S455.8536 573.0409 485.7476 573.0409zM240.7886 463.694c-29.894 0-54.1285 24.2336-54.1285 54.1273 0 29.8937 24.2346 54.1273 54.1285 54.1273 29.896 0 54.1295-24.2336 54.1295-54.1273C294.9181 487.9286 270.6846 463.694 240.7886 463.694zM993.5351 197.0158c0 139.9711-140.0618 254.0677-297.3786 254.0677-166.5829 0-297.7783-114.0966-297.7783-254.0677 0-140.2129 131.1954-254.0607 297.7783-254.0607 34.8608 0 70.0314 8.8 105.0481 17.5771l96.0358-52.5993-26.3372 87.4927C941.1815 48.1468 993.5351 118.0574 993.5351 197.0158zM604.6728 236.2542c-21.2884 0-38.5444 17.2593-38.5444 38.5459 0 21.2886 17.257 38.5439 38.5444 38.5439s38.5444-17.2563 38.5444-38.5439C643.2193 253.5125 625.9603 236.2542 604.6728 236.2542zM797.1392 234.0677c-21.2904 0-38.5454 17.2583-38.5454 38.5439 0 21.2896 17.256 38.5439 38.5454 38.5439 21.2874 0 38.5444-17.2553 38.5444-38.5439C835.6847 251.326 818.4267 234.0677 797.1392 234.0677z"  horiz-adv-x="1000" />

    
    <glyph glyph-name="guanbi" unicode="&#58924;" d="M512.3062 747.4737c-247.1844 0-447.5208-200.3569-447.5208-447.5402 0-247.1639 200.3374-447.5392 447.5208-447.5392 247.1823 0 447.5587 200.3763 447.5587 447.5392C959.8659 547.1158 759.4885 747.4737 512.3062 747.4737zM512.3062-106.9202c-224.3359 0-406.8342 182.5167-406.8342 406.8536 0 224.3359 182.4983 406.8526 406.8342 406.8526 224.3553 0 406.871-182.5167 406.871-406.8526C919.1772 75.5965 736.6615-106.9202 512.3062-106.9202zM648.3937 436.0415c-17.3629 17.6015-45.4953 17.6015-62.8992 0l-73.3204-74.3352-73.3358 74.3352c-17.3629 17.6015-45.4953 17.6015-62.8593 0-17.3629-17.623-17.3629-46.1312 0-63.7338l73.3297-74.3363-69.1569-70.1153c-0.2028-0.2048-0.3912-0.4188-0.5888-0.6277l-1.4766-1.4981 0.0604-0.0625c-15.319-17.7019-14.6575-44.6341 2.006-61.5649 16.6615-16.853 43.2712-17.5227 60.7365-2.0296l0.0543-0.0553 1.1581 1.1735c0.3174 0.3031 0.638 0.599 0.9482 0.9124l69.1497 70.1133 69.163-70.1133c17.364-17.5616 45.4554-17.5616 62.8593 0 17.323 17.6425 17.323 46.1701 0 63.7532l-69.1569 70.101 73.3286 74.3506C665.7577 389.9103 665.7577 418.4184 648.3937 436.0415z"  horiz-adv-x="1024" />

    
    <glyph glyph-name="phone" unicode="&#58937;" d="M736 800h-448c-52.8 0-96-43.2-96-96v-832c0-52.8 43.2-96 96-96h448c52.8 0 96 43.2 96 96v832c0 52.8-43.2 96-96 96zM512-160c-35.346 0-64 28.654-64 64s28.654 64 64 64 64-28.654 64-64-28.654-64-64-64zM768 32h-512v640h512v-640z"  horiz-adv-x="1024" />

    
    <glyph glyph-name="mima" unicode="&#58941;" d="M791.366 340.93l-459.174 0.792c-0.185 61.936-16.847 157.926 36.027 216.192 32.142 35.521 86.326 72.068 144.127 72.068 85.394 0 149.246-64.413 180.166-144.126 9.009-22.992 16.936-35.38 36.038-36.038 47.899-1.45 44.985 49.075 36.028 72.067-44.664 115.085-128.46 180.163-252.232 180.163-84.121 0-130.475-17.266-180.154-72.065-76.008-83.746-72.259-219.151-72.067-288.26l-26.795-0.792c-25.045 0-45.273-20.034-45.273-44.667v-378.248c0-24.775 20.269-44.756 45.273-44.756h557.99c25.009 0 45.273 19.99 45.273 44.756v378.247c0.046 24.678-20.218 44.667-45.227 44.667v0zM765.68-18.35c0-9.966-3.475-18.514-10.58-25.52-7.045-7.051-15.56-10.579-25.517-10.579h-433.221c-9.966 0-18.472 3.478-25.475 10.579-7.051 7.049-10.624 15.554-10.624 25.52v252.715c0 19.878 16.166 36.054 36.098 36.054h433.212c19.931 0 36.106-16.176 36.106-36.054v-252.715z"  horiz-adv-x="1024" />

    
    <glyph glyph-name="unfold" unicode="&#58882;" d="M890.336 565.088c-12.576 12.416-32.8 12.352-45.248-0.192L517.248 234.048 184.832 563.488c-12.576 12.448-32.8 12.352-45.28-0.192-12.448-12.576-12.352-32.832 0.192-45.28l353.312-350.112c0.544-0.544 1.248-0.672 1.792-1.184 0.128-0.128 0.16-0.288 0.288-0.416 6.24-6.176 14.4-9.28 22.528-9.28 8.224 0 16.48 3.168 22.72 9.472l350.112 353.312C902.976 532.384 902.88 552.64 890.336 565.088z"  horiz-adv-x="1024" />

    
    <glyph glyph-name="back" unicode="&#58883;" d="M671.968-16c-12.288 0-24.576 4.672-33.952 14.048L286.048 350.016c-18.752 18.72-18.752 49.12 0 67.872l351.968 352c18.752 18.752 49.12 18.752 67.872 0 18.752-18.72 18.752-49.12 0-67.872l-318.016-318.048 318.016-318.016c18.752-18.752 18.752-49.12 0-67.872C696.544-11.328 684.256-16 671.968-16z"  horiz-adv-x="1024" />

    
    <glyph glyph-name="right" unicode="&#58884;" d="M761.056 363.872c0.512 0.992 1.344 1.824 1.792 2.848 8.8 18.304 5.92 40.704-9.664 55.424L399.936 756.256c-19.264 18.208-49.632 17.344-67.872-1.888-18.208-19.264-17.376-49.632 1.888-67.872l316.96-299.84-315.712-304.288c-19.072-18.4-19.648-48.768-1.248-67.872 9.408-9.792 21.984-14.688 34.56-14.688 12 0 24 4.48 33.312 13.44l350.048 337.376c0.672 0.672 0.928 1.6 1.6 2.304 0.512 0.48 1.056 0.832 1.568 1.344C757.76 357.12 759.2 360.608 761.056 363.872z"  horiz-adv-x="1024" />

    
    <glyph glyph-name="weituangou" unicode="&#58908;" d="M511.998465-146.300672c-246.550148 0-446.41413 199.859887-446.41413 446.39584 0 246.541069 199.863983 446.396863 446.41413 446.396863 246.547078 0 446.415154-199.855794 446.415154-446.396863C958.413619 53.559215 758.545542-146.300672 511.998465-146.300672zM512.028142-105.773653c165.275839 0 307.375914 98.828866 370.697626 240.560868-3.546925 12.983709-32.259003 117.019157-53.394212 156.402119l0-168.577417c0-17.818831-14.450699-32.268938-32.275377-32.268938l-53.785131 0c-17.820584 0-32.27026 14.450107-32.27026 32.268938L711.000788 288.751818c-19.58893-45.674249-42.695107-165.388794-64.54052-166.140924-23.307777-0.803295-45.18082 113.620757-75.301025 136.01172l0-168.280658c0-17.818831-14.446606-32.268938-32.27026-32.268938l-53.780014 0c-17.824678 0-32.2764 14.450107-32.2764 32.268938L452.83257 258.622614c-30.115089-22.390963-51.987108-136.815015-75.295909-136.01172-21.847459 0.75213-44.952613 120.466676-64.541543 166.140924l0-166.140924c0-17.818831-14.450699-32.268938-32.274353-32.268938l-53.786154 0c-17.819561 0-32.271283 14.450107-32.271283 32.268938L194.663327 291.189334c-21.073808-39.284725-49.713229-142.91699-53.373745-156.313092C204.592874-6.906925 346.718532-105.773653 512.028142-105.773653zM512.028142 706.02948c-224.177711 0-405.916151-181.729971-405.916151-405.904637 0-37.232996 5.112647-73.251328 14.49982-107.501386 6.603665 28.365025 39.374343 159.358451 82.11243 166.248372 5.914952 6.77224 14.516193 11.140735 24.21037 11.140735l53.786154 0c9.683943 0 18.264717-4.349051 24.17967-11.101849 47.564198-6.945179 72.636227-150.248979 72.636227-150.248979 42.297025 100.740402 75.276465 107.775632 83.821422 107.745956 5.900625 6.455015 14.312547 10.57587 23.749863 10.57587l53.780014 0c9.437316 0 17.849238-4.121877 23.749863-10.57587 8.54598 0.029676 41.523374-7.005554 83.821422-107.745956 0 0 25.065889 143.3038 72.63111 150.248979 5.913929 6.751774 14.49982 11.101849 24.180693 11.101849l53.785131 0c9.700317 0 18.296441-4.369517 24.215487-11.140735 42.797442-6.901177 75.602913-138.244574 82.143131-166.369122 9.412756 34.290991 14.525403 70.350255 14.525403 107.621113C917.941223 524.299509 736.211993 706.02948 512.028142 706.02948zM770.166684 380.768535c-32.676529 0-59.164872 26.488281-59.164872 59.163471 0 32.67519 26.489366 59.158355 59.164872 59.158355 32.671412 0 59.164872-26.483164 59.164872-59.158355C829.332579 407.256816 802.838096 380.768535 770.166684 380.768535zM511.998465 337.744649c-32.676529 0-59.164872 26.487258-59.164872 59.158355 0 32.67519 26.489366 59.163471 59.164872 59.163471 32.677552 0 59.161802-26.488281 59.161802-59.163471C571.159244 364.231907 544.676017 337.744649 511.998465 337.744649zM253.831269 380.768535c-32.676529 0-59.165895 26.488281-59.165895 59.163471 0 32.67519 26.489366 59.158355 59.165895 59.158355 32.671412 0 59.164872-26.483164 59.164872-59.158355C312.996141 407.256816 286.502682 380.768535 253.831269 380.768535z"  horiz-adv-x="1024" />

    
    <glyph glyph-name="fold" unicode="&#58885;" d="M887.328 278.848 533.952 628.992c-0.512 0.512-1.216 0.672-1.76 1.152-0.128 0.128-0.16 0.32-0.288 0.448-12.576 12.416-32.832 12.352-45.28-0.192L136.512 277.056c-12.448-12.576-12.352-32.8 0.192-45.248 6.24-6.176 14.4-9.28 22.528-9.28 8.224 0 16.48 3.168 22.72 9.472l327.84 330.816 332.48-329.408c6.24-6.176 14.368-9.28 22.528-9.28 8.256 0 16.48 3.168 22.72 9.472C899.968 246.144 899.872 266.4 887.328 278.848z"  horiz-adv-x="1024" />

    
    <glyph glyph-name="daifukuan" unicode="&#58916;" d="M610.242 599.412231 473.820957 361.313437c-14.759145 33.55421-67.367317 112.919792-135.90632 238.098793l-65.182558 0 148.543128-252.020874L295.492456 347.391357l0-51.117215 146.486282 0 0-81.31805-146.486282 0L295.492456 167.692648l146.486282 0 0-120.869858 59.000765 0L500.979504 167.692648l141.488455 0 0 47.263443L500.066715 214.956092l0 81.31805 142.401244 0 0 51.117215-116.728538 0 147.230226 252.020874L610.242 599.412231zM228.541625-42.133218c-31.907711 0-58.013275 26.106588-58.013275 58.014298L170.52835 620.991712c0 31.908734 26.106588 58.014298 58.013275 58.014298l493.570255 0c31.908734 0 58.014298-26.106588 58.014298-58.014298l0-401.946488c22.936385-2.756787 44.685735-9.359158 64.592111-19.145036L844.718289 627.568501c0 63.815421-52.212152 116.028597-116.02962 116.028597L221.965859 743.597097c-63.815421 0-116.028597-52.212152-116.028597-116.028597l0-618.266255c0-63.815421 52.212152-116.028597 116.028597-116.028597l375.675148 0c-15.117302 19.038612-26.867928 40.868803-34.354436 64.592111L228.541625-42.134241zM755.795027 180.939347c-89.61911 0-162.26771-72.649624-162.26771-162.26771 0-89.617064 72.6486-162.26771 162.26771-162.26771 89.617064 0 162.265664 72.650647 162.265664 162.26771C918.060691 108.289724 845.412091 180.939347 755.795027 180.939347zM755.795027-104.125107c-67.817572 0-122.796744 54.979172-122.796744 122.796744s54.979172 122.796744 122.796744 122.796744 122.794697-54.979172 122.794697-122.796744S823.612599-104.125107 755.795027-104.125107zM773.528923 119.286172 739.250212 119.286172 739.250212 33.332545 739.250212 14.914056 739.250212-1.969473 834.413596-1.969473 834.413596 33.332545 773.528923 33.332545Z"  horiz-adv-x="1024" />

    
    <glyph glyph-name="qqkongjian" unicode="&#58886;" d="M757.116343 371.8464 457.245257 156.736914c0 0 120.347429-17.856 301.853257-15.786057l-8.259657 35.5712 258.618514 224.067657c4.754286 4.1216 6.577371 10.680686 4.629943 16.661943-1.9456 5.981257-7.277714 10.225371-13.540571 10.750171L659.604114 457.275429 526.4 772.493714c-2.437486 5.787429-8.120686 9.557943-14.4 9.557943s-11.960686-3.770514-14.398171-9.557943L364.397714 457.275429 23.451429 428.003657c-6.261029-0.526629-11.593143-4.768914-13.538743-10.750171-1.947429-5.981257-0.122514-12.540343 4.629943-16.661943l258.620343-224.067657L195.642514-156.813714c-1.4208-6.101943 0.9472-12.485486 6.032457-16.2048 5.103543-3.646171 11.8912-3.927771 17.2928-0.700343L512 2.996114l293.0304-176.7168c2.5088-1.545143 5.297371-2.247314 8.085943-2.247314 3.243886 0 6.473143 0.981943 9.206857 2.945829 5.087086 3.719314 7.455086 10.102857 6.034286 16.2048l-61.295543 263.6032c26.289371 13.2224 55.2448 35.602286 55.2448 35.602286s-114.753829-56.053029-526.729143-28.677486l298.574629 216.407771c0 0-11.733943 18.256457-385.914514 31.286857C183.191771 362.286629 513.296457 424.004571 757.116343 371.8464z"  horiz-adv-x="1024" />

    
    <glyph glyph-name="shanchu" unicode="&#58935;" d="M909.718069 672.100414l-75.987862-0.03531c-1.271172 0.123586-2.454069 0.388414-3.813517 0.388414s-2.577655-0.282483-3.884138-0.406069L564.594759 671.923862l0.088276 46.786207c0 23.216552-19.350069 42.01931-42.566621 42.01931-3.742897 0-6.920828-0.317793-10.20469-0.564966-3.54869 0.247172-6.938483 0.564966-11.034483 0.564966-23.198897 0-42.01931-18.802759-42.01931-42.01931l0.194207-46.839172L204.093793 671.74731c-2.983724 0.812138-6.161655 1.377103-9.675034 1.377103-3.531034 0-6.744276-0.564966-9.780966-1.394759L109.550345 671.712c-23.198897 0-39.318069-9.304276-39.318069-32.520828 0-23.198897 16.101517-35.945931 39.318069-35.945931l48.728276 0.017655 0.353103-681.207172c1.889103-44.57931 35.557517-80.189793 80.648828-80.189793l42.036966 0 0-0.370759 462.318345 0.282483 0 0.088276L785.655172-158.134069c46.344828 0 79.36 37.499586 79.465931 83.809103L864.750345 603.598345l44.967724 0.017655c23.198897 0 42.01931 12.729379 42.01931 35.945931C951.737379 662.778483 932.934621 672.100414 909.718069 672.100414zM794.07669-4.180966c0.282483-55.225379-10.292966-75.528828-47.633655-81.708138L268.888276-86.171586c-23.340138 4.996414-34.692414 17.019586-39.335724 42.707862l-0.335448 646.761931 564.841931 0.282483 0.353103-689.416828L794.07669-4.180966zM406.068966 531.300414c-19.508966 0-35.310345-15.801379-35.310345-35.310345l0-476.689655c0-19.508966 15.801379-35.310345 35.310345-35.310345 19.49131 0 35.310345 15.801379 35.310345 35.310345l0 476.689655C441.37931 515.499034 425.560276 531.300414 406.068966 531.300414zM617.931034 531.300414c-19.508966 0-35.310345-15.801379-35.310345-35.310345l0-476.689655c0-19.508966 15.801379-35.310345 35.310345-35.310345 19.49131 0 35.310345 15.801379 35.310345 35.310345l0 476.689655C653.241379 515.499034 637.422345 531.300414 617.931034 531.300414z"  horiz-adv-x="1024" />

    
    <glyph glyph-name="shouji" unicode="&#58942;" d="M740.854245 646.897731 278.138718 646.897731 278.138718 701.926022c0 6.458085 5.247514 11.715833 11.7056 11.715833l439.305351 0c6.458085 0 11.7056-5.257747 11.7056-11.715833L740.855268 646.897731zM740.854245 85.91411 278.138718 85.91411 278.138718 613.867454l462.715527 0L740.854245 85.91411zM740.854245-100.473951c0-6.447852-5.247514-11.695367-11.7056-11.695367l-439.305351 0c-6.458085 0-11.7056 5.247514-11.7056 11.695367L278.137695 52.882809l462.715527 0L740.853222-100.473951zM729.148645 746.672132l-439.305351 0c-24.711821 0-44.756343-20.044522-44.756343-44.74611l0-802.39895c0-24.722054 20.044522-44.725644 44.756343-44.725644l439.305351 0c24.711821 0 44.756343 20.00359 44.756343 44.725644L773.904988 701.926022C773.904988 726.62761 753.86149 746.672132 729.148645 746.672132zM459.919854-13.066205l99.153254 0 0-33.040511-99.153254 0 0 33.040511Z"  horiz-adv-x="1024" />

    
    <glyph glyph-name="guanbi1" unicode="&#58925;" d="M870.008 657.758c-197.626 197.626-517.964 197.626-715.592 0s-197.618-517.958 0.008-715.584c197.626-197.626 517.958-197.636 715.586-0.008C1067.634 139.792 1067.634 460.13 870.008 657.758zM183.046-29.204C1.548 152.292 1.544 447.638 183.04 629.134c181.5 181.5 476.846 181.498 658.344 0 181.498-181.498 181.498-476.848 0-658.346C659.888-210.708 364.544-210.702 183.046-29.204zM741.204 500.326 712.578 528.952 512.212 328.586 312.796 528 284.172 499.376 483.588 299.96 284.172 100.546 312.796 71.922 512.212 271.336 712.578 70.97 741.204 99.596 540.836 299.96Z"  horiz-adv-x="1024" />

    
    <glyph glyph-name="dianhua" unicode="&#58887;" d="M747.729108-178.684459c-159.84371 0-378.521248 134.364804-544.193208 334.258047C60.271199 328.412722-6.753682 507.473907 19.552206 646.68246l1.220782 4.410568c2.677845 6.852132 69.387686 174.296197 220.607161 159.88309 2.992885 0.590701 6.655232 1.023882 10.82952 1.023882 14.688767 0 50.564012-5.946391 67.733723-60.76345l72.538092-232.814983-101.994385-104.55409c21.540899-50.997193 107.192555-226.711072 292.475791-300.981887l89.235242 91.361766 251.166096-60.48779c21.540899-5.946391 60.212129-32.015998 60.015229-89.668423 1.575203-18.390493 6.891513-149.486752-161.182633-221.788563L819.479599-168.681921C797.308618-175.258393 773.208014-178.684459 747.729108-178.684459zM68.422874 634.907818c-22.24974-124.204746 40.955274-287.041341 173.784256-447.278852 154.17298-186.110218 362.060378-316.025074 505.521978-316.025074 20.083836 0 38.868131 2.520325 55.959082 7.442834 141.413837 61.629812 129.796716 169.767488 129.639195 170.83075l-0.23628 1.732723 0.03938 1.693343c0.511941 35.166404-22.1316 41.821636-22.367881 41.900396l-222.654924 53.596277-92.031227-94.354651-15.200708 5.55259c-251.244856 90.495404-339.810637 341.031419-343.433604 351.664039L232.440872 426.272199l103.175787 105.774872L272.017844 736.272122C269.61566 743.911856 262.842287 761.790409 252.209668 761.790409l-5.55259-1.969004L240.119986 760.609007C131.549129 773.25001 75.708188 651.959389 68.422874 634.907818z"  horiz-adv-x="1024" />

    
    <glyph glyph-name="fanhui" unicode="&#58910;" d="M512 784.115692c-267.342769 0-484.115692-216.694154-484.115692-484.155077 0-267.342769 216.694154-484.076308 484.115692-484.076308 267.342769 0 484.115692 216.694154 484.115692 484.076308S779.421538 784.115692 512 784.115692zM512-141.107692c-243.239385 0-441.107692 197.868308-441.107692 441.068308 0 243.239385 197.868308 441.107692 441.107692 441.107692s441.107692-197.868308 441.107692-441.107692C953.107692 56.760615 755.239385-141.107692 512-141.107692zM606.365538 30.176 340.086154 296.455385 606.365538 562.656 651.933538 517.048615 431.379692 296.455385 651.933538 75.862154Z"  horiz-adv-x="1024" />

    
    <glyph glyph-name="fenxiang" unicode="&#58880;" d="M793.472 709.792c-70.592 0-128-57.408-128-128 0-7.744 0.96-15.232 2.304-22.656L273.6 389.024C250.368 412.96 217.92 428 181.952 428c-70.592 0-128-57.408-128-128 0-70.592 57.408-128 128-128 22.912 0 44.096 6.592 62.72 17.152l289.088-180.992c-4.672-13.312-7.744-27.392-7.744-42.24 0-70.592 57.408-128 128-128s128 57.408 128 128-57.408 128-128 128c-32.512 0-61.888-12.544-84.48-32.64L291.712 235.168C302.976 254.304 309.952 276.256 309.952 300c0 11.456-1.984 22.336-4.8 32.896l389.76 168.32c23.488-28.672 58.752-47.36 98.624-47.36 70.592 0 128 57.408 128 128S864.064 709.792 793.472 709.792zM117.952 300c0 35.264 28.736 64 64 64s64-28.736 64-64-28.736-64-64-64S117.952 264.736 117.952 300zM654.016 29.856c35.328 0 64-28.672 64-64s-28.672-64-64-64-64 28.672-64 64S618.688 29.856 654.016 29.856zM793.472 517.792c-35.328 0-64 28.736-64 64s28.672 64 64 64 64-28.736 64-64S828.8 517.792 793.472 517.792z"  horiz-adv-x="1024" />

    
    <glyph glyph-name="qintao18" unicode="&#58946;" d="M762.277 160.322c-3.522 13.57 4.806-23.365 4.806-23.365s19.605-9.001 33.882 0c14.372 9.004 32.312 14.411 48.394 46.825 16.083 32.416 32.167 79.197 33.883 106.202 1.71 27.004 5.231 98.584-21.511 134.782v0c-26.839 36.149-59.005 75.793-91.222 99.159-32.261 23.415-87.653 57.603-87.653 57.603l-37.543 14.361c0 0 23.176 25.188 21.46 52.238-1.855 26.958 10.706 26.958-12.561 53.964-23.271 26.954-32.217 30.594-42.922 32.415-10.71 1.772-21.461 0-21.461 0l1.806-18.004c0 0 21.365-12.593 23.221-30.594 1.811-18.004 8.945-9.004 7.138-30.599-1.805-21.593-1.475-30.594-15.085-36.004-13.56-5.411-38.638-5.411-77.897 0-39.399 5.41-143.137 0-177.113-16.183-33.977-16.188-85.797-41.37-116.203-88.151-30.411-46.826-48.299-72.010-55.488-109.785-7.139-37.828-1.761-48.603 23.271-73.836 6.232-6.321 12.943-10.485 19.795-12.927 11.755-4.211 42.329 8.995 34.405 0.818 137.859 142.257 449.194 54.553 504.597-158.919zM721.645 32.493c-27.713-63.088-59.964-106.228-92.318-130.816-32.3-24.692-91.22-41.576-155.719-44.646-64.494-3.075-79.916 0-79.916 0l-33.859-15.422c0 0-41.576 29.279-58.508 47.722-16.933 18.492-46.21 52.356-61.577 77.049-15.422 24.643-36.94 77.938-35.425 125.923 1.511 48.028 6.146 98.826 18.438 137.375 12.297 38.501 29.279 63.094 46.21 73.875 16.933 10.787 46.161 23.601 46.161 23.601s25.265 30.948 135.503 26.731c0 0 47.775 2.445 93.931-13.131 46.21-15.577 75.435-20.211 121.646-71.009 46.21-50.796 52.356-46.156 63.142-97.001 10.787-50.852 20.009-77.055-7.711-140.248v0z"  horiz-adv-x="1024" />

    
    <glyph glyph-name="dingdan" unicode="&#58917;" d="M791.969413 636.527546 707.978487 636.527546l0 55.993269-75.410504 0c-24.249287 33.334199-68.886927 55.995315-120.569006 55.995315-51.681056 0-96.317673-22.661116-120.56696-55.995315l-75.413574 0 0-55.993269-83.991949 0c-61.84658 0-111.985514-50.139957-111.985514-111.992677l0-559.938825c0-61.851697 50.138934-111.985514 111.985514-111.985514l559.941895 0c61.84965 0 111.98756 50.133817 111.98756 111.985514L903.95595 524.534869C903.956973 586.387589 853.819063 636.527546 791.969413 636.527546zM372.015805 636.527546l62.213947 0c0 30.922267 34.819017 55.993269 77.769224 55.993269 42.951231 0 77.769224-25.069979 77.769224-55.993269l62.215994 0 0-111.992677L372.015805 524.534869 372.015805 636.527546zM847.963705-35.403956c0-30.92329-25.068955-55.995315-55.994292-55.995315L232.027517-91.399271c-30.924313 0-55.991222 25.072025-55.991222 55.995315L176.036295 524.534869c0 30.922267 25.067932 55.995315 55.991222 55.995315l83.991949 0 0-111.98756L707.978487 468.542624 707.978487 580.530185l83.990926 0c30.925337 0 55.994292-25.072025 55.994292-55.995315L847.963705-35.403956zM707.977463 76.586674 316.019467 76.586674c-15.461133 0-27.995611-12.535501-27.995611-27.999704 0-15.46011 12.533454-27.995611 27.995611-27.995611l391.957996 0c15.464203 0 27.997658 12.535501 27.997658 27.995611C735.975121 64.051173 723.441667 76.586674 707.977463 76.586674zM707.977463 356.55711 316.019467 356.55711c-15.461133 0-27.995611-12.535501-27.995611-28.001751 0-15.458063 12.533454-27.995611 27.995611-27.995611l391.957996 0c15.464203 0 27.997658 12.537548 27.997658 27.995611C735.975121 344.021609 723.441667 356.55711 707.977463 356.55711zM707.977463 216.571892 316.019467 216.571892c-15.461133 0-27.995611-12.537548-27.995611-27.999704 0-15.46011 12.533454-27.995611 27.995611-27.995611l391.957996 0c15.464203 0 27.997658 12.535501 27.997658 27.995611C735.975121 204.034345 723.441667 216.571892 707.977463 216.571892z"  horiz-adv-x="1024" />

    
    <glyph glyph-name="xuanzhong" unicode="&#58926;" d="M511.402901-143.240987c-59.925834 0-118.065999 11.740392-172.808788 34.893718-52.866045 22.361287-100.342336 54.369282-141.107785 95.134731-40.766472 40.766472-72.774467 88.24174-95.134731 141.108808-23.153326 54.741765-34.893718 112.882953-34.893718 172.807764s11.740392 118.065999 34.893718 172.807764c22.361287 52.867068 54.368258 100.342336 95.134731 141.108808 40.765449 40.766472 88.24174 72.774467 141.107785 95.134731 54.741765 23.153326 112.882953 34.893718 172.808788 34.893718s118.065999-11.740392 172.807764-34.893718c52.866045-22.360264 100.341313-54.368258 141.107785-95.134731 40.765449-40.766472 72.773444-88.24174 95.134731-141.108808 23.153326-54.741765 34.893718-112.882953 34.893718-172.807764s-11.740392-118.065999-34.893718-172.807764c-22.361287-52.866045-54.369282-100.342336-95.134731-141.108808-40.766472-40.765449-88.240717-72.773444-141.107785-95.134731C629.4689-131.500595 571.327712-143.240987 511.402901-143.240987zM511.402901 713.948847c-227.863684 0-413.244812-185.381128-413.244812-413.244812 0-227.863684 185.381128-413.244812 413.244812-413.244812 227.863684 0 413.243789 185.381128 413.243789 413.244812C924.64669 528.567719 739.266585 713.948847 511.402901 713.948847zM445.825346 100.130903 208.394772 337.561477c-5.994528 5.994528-5.994528 15.712867 0 21.707394 5.993504 5.994528 15.712867 5.993504 21.707394 0l215.72318-215.724203L792.702612 490.422957c5.993504 5.994528 15.712867 5.994528 21.707394 0 5.994528-5.993504 5.994528-15.712867 0-21.707394L445.825346 100.130903z"  horiz-adv-x="1024" />

    
    <glyph glyph-name="didian" unicode="&#58913;" d="M511.346107-144.355367c-5.102205 0-9.870812 2.535753-12.725836 6.766101L228.225935 263.27661c-0.092098 0.1361-0.181125 0.274246-0.26913 0.412392-31.126928 49.504484-47.579645 106.387006-47.579645 164.498518 0 85.11554 34.478256 165.104315 97.083106 225.229694C339.89627 713.379888 422.864914 746.403003 511.082094 746.403003c88.218204 0 171.186847-33.023114 233.623875-92.985788 62.60485-60.125379 97.082082-140.113131 97.082082-225.229694 0-58.000995-16.399505-114.796536-47.428196-164.245761-0.088004-0.13917-0.177032-0.277316-0.26913-0.412392L524.079106-137.576987c-2.850931-4.235464-7.620561-6.776334-12.726859-6.77838C511.351224-144.355367 511.348154-144.355367 511.346107-144.355367zM253.818823 280.232794l257.515005-381.770983 257.152754 382.004297c27.872814 44.506656 42.603307 95.579869 42.603307 147.721413 0 76.68145-31.126928 148.805094-87.648223 203.087395C666.750503 685.719922 591.33386 715.703817 511.082094 715.703817c-80.250742 0-155.667386-29.983895-212.357526-84.427878-56.520271-54.282301-87.648223-126.406968-87.648223-203.087395C211.076346 375.945693 225.855958 324.788569 253.818823 280.232794zM511.082094 285.060753c-82.532715 0-149.678998 64.758909-149.678998 144.358829s67.14526 144.358829 149.678998 144.358829c82.533738 0 149.680021-64.758909 149.680021-144.358829S593.616856 285.060753 511.082094 285.060753zM511.082094 543.079224c-65.605184 0-118.979812-50.987255-118.979812-113.659643s53.373605-113.659643 118.979812-113.659643 118.980835 50.987255 118.980835 113.659643S576.688301 543.079224 511.082094 543.079224z"  horiz-adv-x="1024" />

    
    <glyph glyph-name="gouwuche" unicode="&#58888;" d="M373.845477 45.345136c-52.878324 0-95.745644-42.868343-95.745644-95.751784 0-52.876278 42.866297-95.745644 95.745644-95.745644 52.881394 0 95.747691 42.868343 95.747691 95.745644C469.592145 2.476793 426.725848 45.345136 373.845477 45.345136zM373.845477-103.598104c-29.377074 0-53.193503 23.816428-53.193503 53.197596 0 29.372981 23.816428 53.18941 53.193503 53.18941 29.377074 0 53.193503-23.816428 53.193503-53.18941C427.03898-79.781676 403.222551-103.598104 373.845477-103.598104zM215.001749 619.833329l-22.011316 127.667681L65.324798 747.50101l0-42.558281 88.781022 0 102.716406-595.769892 595.765799 0 0 42.554188L295.709909 151.727025l-11.512195 66.768683 568.389288 60.896952L958.975031 577.275048l0 42.558281L215.001749 619.833329zM831.311443 321.947871l-554.331108-61.58973-54.641481 316.916906 687.532829 0L831.311443 321.947871zM735.561705 45.345136c-52.878324 0-95.747691-42.868343-95.747691-95.751784 0-52.876278 42.868343-95.745644 95.747691-95.745644s95.747691 42.868343 95.747691 95.745644C831.309396 2.476793 788.44003 45.345136 735.561705 45.345136zM735.561705-103.598104c-29.379121 0-53.193503 23.816428-53.193503 53.197596 0 29.377074 23.814382 53.191456 53.193503 53.191456 29.377074 0 53.193503-23.814382 53.193503-53.191456C788.755208-79.781676 764.93878-103.598104 735.561705-103.598104z"  horiz-adv-x="1024" />

    
    <glyph glyph-name="lingshi" unicode="&#58939;" d="M198.768019 310.104125c0 0.617054 0 1.233084 0 1.850138 0.190335 2.285043 0.533143 4.570085 0.548492 6.856152 0.184195 28.215622 0.296759 56.431244 0.473791 84.646865 0.491187 78.016865 0.988514 156.032706 1.524726 234.04957 0.090051 13.063527 7.4159 20.432355 20.314675 20.452821 33.304524 0.052189 66.609047 0.059352 99.912547-0.008186 12.07399-0.024559 19.753903-7.786337 19.760043-19.574824 0.01228-22.51069 0.054235-45.022403 0.083911-67.533093 0.002047-1.785669 0-3.572362 0-5.383614 5.876847 0 11.001565 0 16.487509 0 0 2.254344-0.001023 4.079922 0 5.906523 0.033769 43.6348 0.065492 87.269599 0.105401 130.904399 0.01228 13.944594 7.410783 21.305235 21.457708 21.311375 32.070416 0.014326 64.141856 0.007163 96.212272 0.004093 15.545044-0.002047 22.677489-7.096628 22.600741-22.575158-0.156566-31.299867-0.354064-62.59871-0.532119-93.898577-0.010233-1.785669-0.001023-3.571339-0.001023-5.341658 4.036943 0 7.349385 0 11.023054 0 0 1.678222-0.007163 3.037173 0.001023 4.397147 0.081864 14.084787 7.268544 21.253046 21.3871 21.273513 15.727193 0.022513 31.454386 0.005117 47.181579 0.00614 1.63729 0 3.27458 0 5.382591 0 0 2.452865 0.00614 4.269233-0.001023 6.084579-0.11154 30.837332-0.231267 61.674665-0.335644 92.510974-0.045025 13.198603 7.335059 20.7373 20.475334 20.754696 32.995485 0.041956 65.991993 0.039909 98.987478 0.001023 13.258978-0.016373 20.568455-7.439436 20.581758-20.609387 0.039909-40.397059 0.102331-80.794118 0.171915-121.190153 0.00307-1.642406 0.160659-3.28379 0.267083-5.324262 2.117221 0 3.784186 0 5.452175 0 15.572674 0 31.145347 0.01842 46.719044-0.00614 14.055111-0.021489 21.313422-7.343245 21.329794-21.372773 0.095167-80.947614 0.201591-161.89625 0.303922-242.843864 0.002047-1.924839 0-3.848655 0-6.089695 2.957355 0 5.101181 0.005117 7.246031-0.001023 15.208377-0.045025 23.155373-9.075703 20.99108-24.059975-5.833869-40.393989-11.720949-80.779791-17.61724-121.16457-7.587815-51.965535-15.238053-103.921861-22.801309-155.89149-7.253194-49.836035-14.427594-99.683327-21.648043-149.524478-0.551562-3.809769-0.978281-7.656377-1.834788-11.400654-2.056845-8.987698-9.717316-14.205537-20.6012-14.205537-146.477073-0.007163-292.955168-0.004093-439.432241-0.00307-1.079588 0-2.160199-0.011256-3.236718 0.044002-8.769734 0.449231-15.858176 6.467295-17.46886 15.098883-4.065596 21.794375-8.02886 43.608194-12.033058 65.414849-10.317996 56.181557-20.635993 112.362091-30.953989 168.543647-10.651594 57.997925-21.287839 115.998921-31.968086 173.990706C203.199958 287.519758 200.944592 298.804778 198.768019 310.104125zM784.984325 291.749082c-2.418073 0-4.089132 0-5.760191 0-32.689517 0-65.37801 0.014326-98.067526-0.013303-5.999644-0.005117-12.82305 1.568728-17.767666-0.76441-4.941546-2.331092-9.283434-8.076956-11.628852-13.33368-5.303796-11.882632-16.142655-17.902742-24.862247-26.188452-15.821337-15.035438-32.863479-28.420283-52.169173-38.763862-29.487591-15.799848-60.725036-22.51683-94.117564-18.283412-28.215622 3.577478-53.685713 14.402011-77.590146 29.314653-28.599362 17.841344-53.341882 40.258912-76.219939 64.831564-2.183735 2.345418-4.38282 3.28686-7.590885 3.269463-24.51637-0.12689-49.033763-0.069585-73.550133-0.069585-1.620917 0-3.241834 0-5.214768 0 3.301186-17.972327 6.469342-35.227316 9.639544-52.482305 10.320043-56.183604 20.637016-112.36823 30.963199-168.549787 10.659781-57.998949 21.419845-115.980501 31.837102-174.023452 0.944512-5.26491 3.00852-6.099928 7.740288-6.095835 133.224234 0.119727 266.447445 0.096191 399.671679 0.096191 1.079588 0 2.348488-0.358157 3.194762 0.086981 1.343601 0.707105 3.25309 1.809205 3.450589 2.990101 1.778506 10.631128 3.234671 21.315468 4.786003 31.984459 5.073552 34.902928 10.141988 69.806879 15.22168 104.708783 5.412266 37.187971 10.833743 74.374918 16.250102 111.562888 5.083785 34.900881 10.16757 69.802786 15.247262 104.70469C780.596388 261.508337 782.738168 276.284879 784.984325 291.749082zM443.840644 563.578094c0-1.873674-0.005117-3.529383 0.001023-5.185093 0.125867-37.615713 0.265036-75.230402 0.375553-112.846114 0.194428-65.828264 0.400113-131.656529 0.472767-197.484793 0.004093-3.435239 0.946558-5.117554 4.190439-6.460132 14.202467-5.880941 28.875654-9.751085 44.203758-10.854209 5.411243-0.38988 10.874675-0.062422 15.740496-0.062422 0 111.738897 0 222.332714 0 332.892763C486.793922 563.578094 465.570551 563.578094 443.840644 563.578094zM546.828226 240.869275c2.503007 1.13587 3.900843 1.735527 5.26798 2.397606 21.233604 10.272971 39.039131 25.073048 55.470359 41.751916 2.479471 2.517333 3.473101 5.000897 3.476171 8.488325 0.082888 97.093339 0.257873 194.186677 0.417509 291.280016 0.00307 1.614777 0 3.228531 0 4.797259-22.115694 0-43.462884 0-64.633043 0C546.828226 473.446307 546.828226 357.654095 546.828226 240.869275zM238.547001 620.169997c-0.603751-96.995101-1.205455-193.703677-1.807159-290.441928 22.893406 0 45.143153 0 67.193355 0 0 96.963379 0 193.560414 0 290.441928C281.976116 620.169997 260.487709 620.169997 238.547001 620.169997zM341.449649 527.26198c0-2.214435-0.004093-4.170996 0.001023-6.127558 0.161682-62.138222 0.370437-124.276445 0.403183-186.414667 0.00307-5.310959 0.89744-9.347902 5.129834-13.30605 14.514575-13.570063 28.370141-27.840068 42.756803-41.550325 5.143137-4.901637 11.082406-8.969279 16.738219-13.480013 0 87.431282 0 174.134992 0 260.878612C384.510374 527.26198 363.291097 527.26198 341.449649 527.26198zM694.352141 561.8528c0-77.535911 0-154.790412 0-232.160547 22.007223 0 43.318598 0 64.432475 0 0 77.56968 0 154.808832 0 232.160547C736.822418 561.8528 715.483414 561.8528 694.352141 561.8528zM656.933927 329.647227c0 1.819438 0.004093 3.190669-0.001023 4.560876-0.223081 69.050656-0.444115 138.101311-0.672312 207.15299-0.041956 12.793374-0.237407 25.586748-0.137123 38.378076 0.096191 12.276604 7.78122 19.796882 20.024056 19.944238 2.882654 0.034792 5.76633 0.005117 8.844435 0.005117 0.157589 1.428535 0.341784 2.318812 0.340761 3.210112-0.067538 34.217313-0.182149 68.434625-0.182149 102.651938 0 3.039219-1.030469 3.969405-4.015454 3.953032-19.11229-0.102331-38.22458-0.042979-57.33687-0.070608-1.300622-0.002047-2.601244-0.277316-3.640923-0.394996 0-27.405163 0-54.30072 0-81.591273 2.442632 0 4.424776 0.002047 6.40692 0 15.308661-0.019443 22.360264-7.05058 22.332634-22.280446-0.164752-90.167602-0.332575-180.335205-0.49835-270.502807-0.00307-1.921769 0-3.842515 0-6.019087C651.582035 329.017894 653.998061 329.302373 656.933927 329.647227zM406.209582 565.332041c0 5.242398 0.008186 9.996678-0.001023 14.750959-0.027629 13.872962 7.429203 21.328771 21.416775 21.36254 9.241478 0.022513 18.482957-0.007163 27.724435 0.01535 1.620917 0.004093 3.240811 0.149403 5.003967 0.237407 0 28.318976 0 56.114019 0 83.867106-21.772886 0-43.227524 0-64.954361 0 0-40.246633 0-80.088036 0-120.233362C398.996297 565.332041 402.304645 565.332041 406.209582 565.332041z"  horiz-adv-x="1024" />

    
    <glyph glyph-name="shoucang" unicode="&#58911;" d="M953.903525 437.402393c-0.539282-7.172353-1.065262-14.34573-1.620917-21.517059-2.868327-36.999682-13.000082-72.074525-29.305443-105.235786-26.372647-53.638641-59.652612-102.738919-98.68765-148.022265-42.319851-49.093115-88.287789-94.559633-136.064932-138.256854-45.841048-41.926902-93.324502-81.921801-141.966339-120.555703-12.014638-9.54233-25.199938-14.910595-40.799218-13.325493-10.536984 1.070378-19.735483 5.29254-27.90863 11.768021-86.809111 68.778456-170.041768 141.531434-246.068302 222.239594-43.699268 46.390563-82.991156 96.128361-114.648157 151.665235-18.669198 32.750915-34.576493 66.61928-41.974997 103.814414-2.946099 14.811334-4.137227 29.971615-6.131651 44.972261-0.206708 1.553379-0.448208 3.101641-0.673335 4.652973 0 8.378831 0 16.757662 0 25.136493 0.286526 1.685385 0.677429 3.361561 0.843204 5.059226 0.701988 7.181563 1.02126 14.415314 2.045589 21.548782 7.463995 51.965535 26.5374 99.119485 59.960627 139.835815 43.541679 53.043077 98.837052 85.024465 167.968549 91.090625 35.568077 3.121084 69.935816-2.306532 103.06433-15.488763 37.759999-15.025205 69.594031-38.372959 96.105848-69.071122 4.311189-4.992711 8.40953-10.168594 12.904914-15.621792 1.2689 1.573845 2.355651 2.871397 3.387144 4.209882 21.905916 28.40084 48.380894 51.52449 79.980589 68.560492C640.726803 709.885298 690.157609 718.747129 742.156914 709.980465c60.551074-10.208503 109.529579-40.862663 148.105153-88.101547 36.941354-45.237297 57.025785-97.480148 62.065568-155.578358 0.60989-7.024997 1.054005-14.06432 1.574868-21.097504C953.903525 442.603859 953.903525 440.002614 953.903525 437.402393zM898.728902 440.947126c-0.6191 8.346085-0.99363 16.718777-1.89721 25.03314-5.063319 46.553269-22.228257 88.057545-53.768601 122.822326-42.201148 46.514383-94.556563 69.004607-157.803026 62.721507-43.496653-4.320399-80.099293-23.566742-111.041002-54.027497-20.995173-20.669762-36.102243-45.25367-47.571459-72.210625-2.979868-7.003508-7.963369-11.42726-15.755846-11.453866-7.812943-0.026606-12.828167 4.431939-15.813151 11.397584-9.66615 22.556739-21.629623 43.738154-38.071084 62.10343-35.843346 40.037878-79.982636 63.324234-134.297682 65.148789-50.1594 1.684362-94.006024-15.162328-129.962957-49.536206-59.815317-57.181327-79.199807-127.835504-64.35061-208.373795 5.638417-30.582529 19.49296-58.090023 34.577516-84.993766 30.517037-54.429657 69.413929-102.484116 112.274086-147.477866 71.876004-75.453483 150.243863-143.722332 231.604892-208.66646 3.069919-2.450818 4.858658-2.50403 7.960299-0.030699 45.74895 36.479843 90.509387 74.122161 133.786029 113.508193 47.140647 42.902112 92.65833 87.404676 134.357034 135.719054 37.751812 43.741223 69.933769 91.109044 94.385671 143.530974C891.321188 376.133981 898.244878 407.809401 898.728902 440.947126z"  horiz-adv-x="1024" />

    
    <glyph glyph-name="xuanzhong1" unicode="&#58927;" d="M511.865947 748.055642c-247.171426 0-447.580828-200.370517-447.580828-447.541943 0-247.211335 200.409402-447.582875 447.580828-447.582875s447.542966 200.370517 447.542966 447.582875C959.409936 547.684102 759.038396 748.055642 511.865947 748.055642zM758.044766 423.511012l-266.202874-266.202874c-0.028653-0.028653-0.021489-0.084934-0.051165-0.113587l-1.320065-1.257643-17.066701-17.066701c-1.826602-1.826602-3.749394-3.354398-5.664-4.590552l-2.1295-2.029216c-1.301645-1.240247-3.361561-1.36509-5.641487-1.01205-2.396583-0.36225-4.550643-0.207731-5.868661 1.110287l-2.359744 2.359744c-1.798972 1.255597-3.602038 2.77623-5.307889 4.565992l-14.95255 15.694447-2.950192 2.950192c-0.065492 0.065492-0.049119 0.192382-0.110517 0.261966L265.247106 329.449729c-6.950296 7.29515-9.668197 16.009625-6.05081 19.456121l26.181289 24.943089c3.617387 3.446495 12.189623 0.312108 19.140942-6.984065L460.72929 202.904615l258.960936 258.960936c7.164167 7.164167 15.810081 10.089799 19.343557 6.557346l25.570375-25.570375C768.136611 439.320069 765.208932 430.675178 758.044766 423.511012z"  horiz-adv-x="1024" />

    
    <glyph glyph-name="sina" unicode="&#58889;" d="M731.718 309.913c-35.017 6.81-18.003 25.688-18.003 25.688s34.277 56.592-6.796 97.764c-50.885 50.963-174.551-6.49-174.551-6.49-47.256-14.68-34.732 6.696-28.043 43.115 0 42.866-14.666 115.411-140.502 72.56-125.694-43.086-233.633-194.091-233.633-194.091-75.065-100.319-65.11-177.881-65.11-177.881 18.729-171.171 200.317-218.171 341.566-229.293 148.592-11.677 349.109 51.298 409.934 180.713 60.819 129.593-49.69 180.877-84.863 187.914zM417.62-10.448c-147.489-6.909-266.736 67.187-266.736 165.798 0 98.725 119.254 177.881 266.736 184.705 147.646 6.796 267.092-54.13 267.092-152.641 0.007-98.597-119.446-191.159-267.092-197.862zM388.203 275.024c-148.372-17.391-131.215-156.605-131.215-156.605s-1.53-44.082 39.784-66.533c86.806-47.107 176.187-18.572 221.337 39.82 45.185 58.456 18.693 200.58-129.906 183.317zM350.788 79.653c-27.716-3.252-50.024 12.73-50.024 35.963 0 23.098 19.81 47.299 47.519 50.223 31.872 3.024 52.55-15.349 52.55-38.561-0.007-23.126-22.457-44.502-50.045-47.626zM438.227 154.276c-9.357-7.038-20.92-6.063-25.873 2.384-5.173 8.197-3.238 21.369 6.241 28.278 11.022 8.219 22.443 5.863 27.41-2.377 4.953-8.418 1.388-21.041-7.778-28.285zM803.979 370.191c11.94 0 22.102 8.852 23.809 20.394 0.199 0.868 0.334 1.615 0.334 2.604 18.11 163.173-133.493 135.108-133.493 135.108-13.463 0-24.265-10.916-24.265-24.514 0-13.399 10.809-24.3 24.265-24.3 108.9 24.066 84.863-85.020 84.863-85.020 0-13.492 10.98-24.272 24.485-24.272zM786.289 655.030c-52.408 12.296-106.31 1.686-121.417-1.21-1.181-0.114-2.249-1.21-3.33-1.43-0.534-0.1-0.882-0.655-0.882-0.655-14.879-4.213-25.745-18.010-25.745-34.341 0-19.426 15.705-35.422 35.351-35.422 0 0 19.099 2.54 32.050 7.628 12.794 5.173 121.381 3.843 175.291-86.87 29.445-66.22 12.944-110.516 10.88-117.624 0 0-6.995-17.206-6.995-34.142 0-19.554 15.769-31.836 35.237-31.836 16.302 0 29.993 2.234 34.014 29.844h0.192c57.901 193.294-70.852 284.134-164.646 306.058z"  horiz-adv-x="1024" />

    
    <glyph glyph-name="wode" unicode="&#58890;" d="M955.923532-110.936233c1.231037-4.084015 2.091638-8.329712 2.091638-12.81691 0-24.64019-19.951401-44.602847-44.570101-44.602847-24.615631 0-44.567032 19.962657-44.567032 44.602847 0 0.049119 0.013303 0.094144 0.013303 0.143263l-1.166569 0c-11.606339 186.693006-166.216649 334.626243-355.781052 334.626243-189.568497 0-344.178807-147.933237-355.785146-334.626243l-1.055029 0c0.002047-0.049119 0.01535-0.094144 0.01535-0.143263 0-24.64019-19.952424-44.602847-44.570101-44.602847-24.615631 0-44.567032 19.962657-44.567032 44.602847 0 4.226255 0.775666 8.234545 1.873674 12.110829C80.799234 57.758863 187.807387 200.794557 337.194742 264.517881c-69.481468 50.685379-114.818025 132.506896-114.818025 225.116107 0 153.925718 124.738979 278.723026 278.622742 278.723026 153.874553 0 278.620695-124.796284 278.620695-278.723026 0-89.328491-42.174542-168.638815-107.507526-219.645512C828.733735 209.579641 942.290023 63.501658 955.923532-110.936233zM690.305989 489.633988c0 104.572684-84.903715 189.338253-189.632965 189.338253-104.737436 0-189.637058-84.765569-189.637058-189.338253 0-104.563474 84.899622-189.336206 189.637058-189.336206C605.402273 300.297782 690.305989 385.070514 690.305989 489.633988z"  horiz-adv-x="1024" />

    
    <glyph glyph-name="bianji" unicode="&#58936;" d="M803.43551-212 144.013406-212C83.314663-212 34.104058-162.756543 34.104058-102.023814L34.104058 631.012551c0 60.731596 49.210605 109.942201 109.909348 109.942201l512.885747 0c46.946056 0 46.946056-73.283472 0-73.283472L144.013406 667.67128c-19.478065 0-36.658729-17.180664-36.658729-36.658729l0-733.037498c0-19.476932 17.181797-36.658729 36.658729-36.658729l659.422104 0c19.474666 0 36.656463 17.181797 36.656463 36.658729L840.091973 484.411622c0 46.980041 73.248354 46.980041 73.248354 0l0-586.435436C913.340327-162.756543 864.133121-212 803.43551-212L803.43551-212zM561.871935 384.756749c-13.716437 16.048956-13.716437 36.659861 0 52.674832L925.928454 801.686348c14.917248 13.751555 37.791569 13.751555 52.673699 0 12.584729-13.751555 14.884395-28.633684 5.727643-44.68264l-5.727643-8.023911L614.546767 384.756749C599.662371 371.006327 576.75633 371.006327 561.871935 384.756749L561.871935 384.756749zM437.08159 374.436569 217.262893 374.436569c-46.946056 0-46.946056 73.317457 0 73.317457l219.818696 0C484.028778 447.754026 484.028778 374.436569 437.08159 374.436569L437.08159 374.436569zM656.89802 154.551035 217.262893 154.551035c-46.946056 0-46.946056 73.283472 0 73.283472l439.63626 0C703.845209 227.834507 703.845209 154.551035 656.89802 154.551035z"  horiz-adv-x="1024" />

    
    <glyph glyph-name="collect_act" unicode="&#58912;" d="M917.901 381.051c-2.367 7.27-8.649 12.565-16.213 13.663l-256.823 37.317-114.853 232.725c-3.386 6.851-10.369 11.193-18.011 11.193s-14.625-4.341-18.011-11.193l-114.853-232.725-256.823-37.317c-7.564-1.098-13.846-6.394-16.213-13.663-2.36-7.27-0.392-15.259 5.086-20.593l185.838-181.144-43.873-255.778c-1.288-7.545 1.804-15.154 7.989-19.652 6.191-4.485 14.376-5.086 21.156-1.53l229.706 120.776 229.706-120.776c2.942-1.543 6.152-2.301 9.349-2.301 4.165 0 8.309 1.294 11.807 3.831 6.185 4.497 9.277 12.108 7.989 19.652l-43.867 255.777 185.83 181.144c5.479 5.334 7.447 13.323 5.087 20.594zM691.386 200.705c-4.733-4.615-6.897-11.257-5.78-17.782l38.774-226.071-203.031 106.746c-2.929 1.53-6.139 2.301-9.349 2.301s-6.42-0.772-9.349-2.301l-203.032-106.746 38.781 226.071c1.117 6.525-1.046 13.167-5.78 17.782l-164.257 160.105 226.999 32.988c6.538 0.955 12.193 5.060 15.121 10.983l101.516 205.699 101.516-205.699c2.929-5.923 8.583-10.028 15.121-10.983l226.999-32.988-164.251-160.105z"  horiz-adv-x="1024" />

    
    <glyph glyph-name="daipingjia" unicode="&#58918;" d="M915.009192 1.843366 735.894791 1.843366l-134.336568-134.411269-134.336568 134.411269L288.105209 1.843366c-24.730241 0-44.778856 20.060895-44.778856 44.801369l0 134.411269L108.990808 181.056004c-24.732288 0-44.780903 20.058848-44.780903 44.804439L64.209906 673.892549c0 24.744567 20.048615 44.802392 44.780903 44.802392l626.90296 0c24.729218 0 44.775786-20.057825 44.775786-44.802392l0-134.409223 134.338614 0c24.731264 0 44.779879-20.059871 44.779879-44.803415l0-448.036199C959.789071 21.903238 939.740456 1.843366 915.009192 1.843366zM915.009192 449.877519c0 32.818453-13.085016 44.801369-44.779879 44.801369L735.894791 494.678888l0 134.411269c0 35.048237-10.025331 44.802392-44.779879 44.802392L153.769664 673.892549c-31.471782 0-45.678342-14.216793-44.778856-44.802392l0-358.425276c0-32.441876 14.001899-44.804439 44.778856-44.804439L288.105209 225.860443l0-134.413316c0-34.209126 11.972683-44.799322 44.777833-44.799322l179.116447 0 89.557712-89.608877 89.557712 89.608877 179.1144 0c35.033911 0 44.779879 13.096273 44.779879 44.799322L915.009192 449.877519zM847.840396 248.261639 355.274004 248.261639c-12.364609 0-22.388916 10.030447-22.388916 22.400173 0 12.371772 10.023284 22.405289 22.388916 22.405289l492.567415 0c12.365632 0 22.388916-10.033517 22.388916-22.405289C870.229313 258.292086 860.206028 248.261639 847.840396 248.261639zM668.723949 494.678888 288.108279 494.678888l0-201.616904c0-12.371772-10.024308-22.402219-22.38994-22.402219-12.364609 0-22.388916 10.030447-22.388916 22.402219L243.329423 517.069851c0 0.00307-0.002047 0.007163-0.002047 0.011256l0 0.001023c0 12.371772 10.024308 22.401196 22.38994 22.401196L668.723949 539.483326c12.367679 0 22.390963-10.029424 22.390963-22.401196l0-0.001023C691.114912 504.708312 681.091628 494.678888 668.723949 494.678888z"  horiz-adv-x="1024" />

    
    <glyph glyph-name="dianpu" unicode="&#58938;" d="M949.958168 445.082306c-0.064468 0.481977-0.157589 0.933255-0.255827 1.318018-0.388856 1.87265-0.904603 3.676739-1.641383 5.411243l-75.505671 187.960883c-13.0799 38.97671-50.636261 62.873979-94.572936 62.97324L247.996722 702.74569c-44.51689 0-79.109756-23.677259-91.64321-61.105706L75.178725 449.84989c-0.38374-1.12973-0.807389-2.800789-1.160429-4.511757-5.894244-18.101263-8.856715-36.686551-8.856715-55.339376 0.064468-65.581648 36.043914-125.46348 93.865831-156.290579 0 0 0-0.033769 0.033769-0.033769 0.028653 0 0.028653 0 0.028653-0.029676l0 0c0 0 0.034792 0 0.034792-0.033769 23.804149-12.691043 51.795667-19.130709 83.330894-19.130709 52.857858 0.157589 101.82306 23.382547 135.192052 63.134923 33.211403-39.429011 81.787748-62.491263 134.552485-62.815651 52.341089 0.417509 100.790544 23.577998 133.840264 62.97324 33.374108-39.749306 82.397638-62.875003 135.51644-62.875003 32.150234 0.157589 60.687174 6.925736 84.717474 20.098757 56.951083 31.118741 92.28687 90.7734 92.257194 155.681712C958.623525 409.324918 955.56691 428.042211 949.958168 445.082306L949.958168 445.082306zM835.445088 291.529071c-14.59337-7.990998-32.788777-12.082176-53.953819-12.21009-39.232536 0-74.989925 19.906375-95.865371 53.699016-1.479701 3.188622-3.962242 8.467859-8.596795 13.55983-5.318122 5.956665-14.981203 13.011338-30.891568 13.011338-12.824073 0-24.448832-5.249561-31.020504-13.299911-4.349051-4.89652-6.733355-9.761318-8.439206-13.30605-20.618597-33.367969-56.081273-53.471842-94.51256-53.762461-38.908148 0.226151-74.474179 20.260439-95.216595 53.890374-1.450025 2.963495-3.868097 7.957229-7.632841 12.17939-15.142885 18.067494-49.028647 17.134239-62.235436 1.385557-4.860704-5.317099-7.407714-10.665921-9.049097-14.303774-20.810978-33.374108-56.598043-53.378721-95.637174-53.506635-20.812001 0-38.624692 3.897773-52.991911 11.56643l-0.028653 0-0.033769 0c-36.85028 19.615757-59.753919 57.757448-59.783595 99.501178 0 12.338003 2.058892 24.772196 6.182816 36.883025 0.289596 0.86981 0.545422 1.833765 0.771573 2.835581l79.94989 189.017958c1.641383 4.831029 6.606465 19.552312 31.471782 19.552312L778.07445 638.222141c10.213619-0.60989 27.800159-2.412956 34.047444-20.805862l74.862012-186.411597c0.289596-1.352811 0.64366-2.645247 0.968048-3.707438 4.1536-12.144598 6.212492-24.481577 6.212492-36.719296C894.235053 349.316196 871.718223 311.372002 835.445088 291.529071L835.445088 291.529071zM859.602278 188.158772c-17.811668 0-32.209586-14.395872-32.209586-32.208563l0.064468-175.75284c0-9.983375-8.148587-18.10331-18.101263-18.131963l-606.069469-0.38988c-9.986445 0-18.101263 8.052396-18.101263 17.975397l-0.227174 172.718737c-0.033769 17.784038-14.465456 32.150234-32.213679 32.150234l-0.063445 0c-17.778922-0.033769-32.180933-14.464433-32.146141-32.278147l0.227174-172.624593c0-45.417399 37.010939-82.363869 82.524528-82.363869l606.161566 0.38374c45.455261 0.098237 82.432431 37.142945 82.432431 82.594113l-0.064468 175.71907C891.81698 173.762901 877.385293 188.158772 859.602278 188.158772L859.602278 188.158772zM763.904729 413.6402 248.511445 413.6402c-17.777899 0-32.213679 14.431687-32.213679 32.213679 0 17.783015 14.435781 32.213679 32.213679 32.213679l515.393283 0c17.812691 0 32.209586-14.430664 32.209586-32.213679C796.113291 428.071887 781.71742 413.6402 763.904729 413.6402L763.904729 413.6402zM763.904729 413.6402"  horiz-adv-x="1024" />

    
    <glyph glyph-name="daishouhuo" unicode="&#58919;" d="M757.020436-87.833049c-61.995983 0-112.384603 50.387597-112.384603 112.384603 0 4.372587 0.207731 8.745175 0.728594 13.013385L451.046766 37.564939c-2.550079-1.301645-5.362124-1.978051-8.380878-1.978051l-61.476143 0c-0.207731 0-0.416486 0-0.572028 0-6.402827-56.010665-54.032614-99.631138-111.708198-99.631138S163.55196-20.422753 157.149133 35.587911l-61.47512 0c-10.30674 0-18.635429 8.328689-18.635429 18.635429L77.038584 343.954071c0 3.435239 0.937348 6.819313 2.706645 9.734712l99.68435 162.825412c23.528879 37.270858 58.299801 56.010665 103.430674 56.010665L424.447968 572.52486c3.175319 68.450998 59.810201 123.160018 129.041982 123.160018l276.301883 0c71.209832 0 129.145335-57.936527 129.145335-129.145335l0-427.415556c0-52.210106-39.561018-95.362928-90.312912-100.984972 0.520863-4.424776 0.780783-9.005095 0.780783-13.586436C869.405039-37.444429 819.016419-87.833049 757.020436-87.833049zM757.020436 99.665299c-41.382503 0-75.114768-33.731242-75.114768-75.114768 0-41.382503 33.731242-75.114768 75.114768-75.114768 41.382503 0 75.114768 33.731242 75.114768 75.114768C832.133158 65.934057 798.402939 99.665299 757.020436 99.665299zM268.909519 123.506287c-41.434691 0-75.165933-33.731242-75.165933-75.165933 0-41.382503 33.731242-75.114768 75.165933-75.114768 41.382503 0 75.114768 33.731242 75.114768 75.114768C344.024288 89.775045 310.292022 123.506287 268.909519 123.506287zM268.909519 160.776122c53.616128 0 98.590436-37.739533 109.730147-88.075964 0.832971 0.104377 1.664919 0.155543 2.550079 0.155543l42.840714 0 0.260943 462.395232-141.43115 0c-32.377408 0-55.17667-12.232602-71.730695-38.415938l-96.821139-158.139693 0-265.839601 44.818765 0C170.371272 123.14199 215.34558 160.776122 268.909519 160.776122zM461.613426 74.835797l194.890712 0c18.479887 36.802184 56.582693 62.10036 100.516298 62.10036 43.933605 0 82.037435-25.298176 100.516298-62.10036 35.344996 0.052189 64.130599 28.889981 64.130599 64.287165L921.667334 566.538519c0 50.64854-41.22696 91.8755-91.8755 91.8755l-276.302907 0c-50.64854 0-91.8755-41.22696-91.8755-91.8755L461.613426 74.835797 461.613426 74.835797zM309.823348 321.103644 190.881398 321.103644c-10.30674 0-18.635429 8.328689-18.635429 18.635429s8.328689 18.635429 18.635429 18.635429l100.308567 0 0 100.308567c0 10.30674 8.328689 18.635429 18.635429 18.635429s18.635429-8.328689 18.635429-18.635429l0-118.943996C328.458777 329.432333 320.130088 321.103644 309.823348 321.103644z"  horiz-adv-x="1024" />

    
    <glyph glyph-name="miaosha" unicode="&#58898;" d="M515.255649 684.447952c-228.829685 0-415.022295-186.193633-415.022295-415.021272 0-228.846058 186.193633-415.022295 415.022295-415.022295 228.828662 0 415.022295 186.17726 415.022295 415.022295C930.278967 498.25432 744.085334 684.447952 515.255649 684.447952L515.255649 684.447952zM515.255649-91.280568c-198.885699 0-360.722598 161.804153-360.722598 360.707248 0 198.885699 161.835875 360.705202 360.722598 360.705202 198.903096 0 360.705202-161.819502 360.705202-360.705202C875.961874 70.523585 714.159768-91.280568 515.255649-91.280568L515.255649-91.280568zM137.544121 575.212062C152.311453 652.98538 221.591329 705.358191 291.768645 692.0767c14.734586-2.744507 28.947286 6.894014 31.740912 21.6286 2.793626 14.734586-6.892991 28.946262-21.6286 31.740912-99.82659 18.900465-197.367113-52.91107-217.687928-160.105464-2.809999-14.734586 6.876618-28.946262 21.612227-31.756261 1.715061-0.311085 3.413749-0.473791 5.096065-0.473791C123.691625 553.126045 135.077953 562.20891 137.544121 575.212062L137.544121 575.212062zM944.343287 585.339724C924.005077 692.535141 826.269102 764.247416 726.622614 745.446211c-14.72026-2.793626-24.421202-17.005302-21.629623-31.740912 2.793626-14.718213 17.054421-24.373107 31.756261-21.6286 70.176292 13.281491 139.457192-39.074947 154.207128-116.865661 2.484587-13.003152 13.870916-22.086018 26.660196-22.086018 1.683339 0 3.382027 0.147356 5.096065 0.473791C937.433924 556.393461 947.136913 570.605138 944.343287 585.339724L944.343287 585.339724zM722.177372 278.654856 532.91382 278.654856 532.91382 488.159404c0 14.996552-12.153808 27.166733-27.149337 27.166733-15.011902 0-27.16571-12.170181-27.16571-27.166733l0-236.653885c0-15.011902 12.153808-27.149337 27.16571-27.149337l216.412888 0c15.013949 0 27.16571 12.137435 27.16571 27.149337C749.343081 266.502072 737.19132 278.654856 722.177372 278.654856L722.177372 278.654856zM722.177372 278.654856"  horiz-adv-x="1024" />

    
    <glyph glyph-name="xianzhaguozhi" unicode="&#58899;" d="M577.666582-121.806815l15.689331 0c10.703783 0 19.461237 8.754385 19.461237 19.459191l0 5.566786c0 10.704806-8.757454 19.459191-19.461237 19.459191l-24.439622 0c88.832188 73.562413 159.240771 351.022679 163.559123 687.158299 0.248663 19.325138-17.609053 35.113729-39.508829 35.113729L551.275515 644.95038l-18.022469 104.792695c-1.358951 7.885598-6.996344 14.379499-14.623046 16.812921L391.370619 807.243673c-11.283997 3.657296-23.381523-2.600221-26.996864-13.909801-3.615341-11.308557 2.617617-23.38971 13.909801-26.996864l114.842585-36.728506 14.560624-84.658122L351.60494 644.95038c-21.898753 0-39.756469-15.788591-39.507806-35.113729 4.318352-336.13562 74.726935-613.594863 163.559123-687.158299L451.217658-77.321648c-10.703783 0-19.461237-8.754385-19.461237-19.459191l0-5.566786c0-10.704806 8.757454-19.459191 19.461237-19.459191l15.685237 0c-49.101301-10.92277-83.45676-35.890418-83.45676-64.97585l277.679253 0C661.124366-157.697233 626.767883-132.730609 577.666582-121.806815zM689.404456 601.996079c-0.910743-56.770981-3.65832-109.968577-7.78122-159.739121-21.310352 7.567349-55.035454 15.201214-97.31335 10.624988l-25.6461 149.114133L689.404456 601.996079zM515.075035 601.996079l27.065426-157.360957c-6.485715-1.866511-13.106506-4.034896-19.853164-6.55223-71.187319-26.535353-127.949091-14.391778-158.728094-2.873444-4.459568 51.783387-7.435343 107.318214-8.389064 166.786631L515.075035 601.996079z"  horiz-adv-x="1024" />

    
    <glyph glyph-name="zuihouyibanfenxiang" unicode="&#58892;" d="M1.322061 534.866486c0 12.766948 6.383474 25.533897 6.383474 38.300845 19.150423 51.067794 63.834742 82.985165 121.286011 82.985165 70.218217 0 197.887701 0 255.33897 0 19.150423 0 31.917371-12.766948 31.917371-31.917371l0 0c0-19.150423-12.766948-31.917371-31.917371-31.917371-57.451268 0-185.120753 0-248.955495 0-6.383474 0-19.150423 0-25.533897 0C84.307226 585.93428 65.156803 560.400383 65.156803 534.866486c0-44.68432 0-82.985165 0-127.669485 0-165.97033 0-325.557186 0-491.527516 0-25.533897 12.766948-51.067794 38.300845-63.834742C109.841123-148.165258 116.224597-148.165258 128.991546-148.165258c248.955495 0 491.527516 0 740.483012 0 38.300845 0 70.218217 25.533897 70.218217 70.218217 0 95.752114 0 274.489392 0 351.091083 0 19.150423 12.766948 31.917371 31.917371 31.917371l0 0c19.150423 0 31.917371-12.766948 31.917371-31.917371 0-70.218217 0-248.955495 0-351.091083 0-63.834742-44.68432-114.902536-108.519062-127.669485-6.383474 0-19.150423 0-25.533897 0C620.519062-212 377.947041-212 128.991546-212c-70.218217 0-121.286011 44.68432-127.669485 114.902536 0 0 0 6.383474 0 6.383474C1.322061 113.557186 1.322061 324.211836 1.322061 534.866486L1.322061 534.866486zM703.504227 368.896156c-89.368639 0-165.97033-19.150423-236.188547-76.601691C397.097464 234.843197 358.796618 171.008454 339.646196 81.639815 294.961876 171.008454 282.194927 324.211836 371.563567 451.881321c82.985165 114.902536 191.504227 165.97033 331.94066 172.353804L703.504227 637.002074c0 51.067794 0 95.752114 0 146.819908 0 12.766948 6.383474 19.150423 12.766948 25.533897 12.766948 6.383474 25.533897 0 31.917371-6.383474 44.68432-44.68432 89.368639-95.752114 134.052959-140.436433 44.68432-44.68432 89.368639-95.752114 127.669485-140.436433C1016.294465 515.716063 1022.677939 509.332589 1022.677939 496.565641c0-6.383474 0-19.150423-6.383474-25.533897-89.368639-95.752114-172.353804-185.120753-261.722444-280.872867-12.766948-12.766948-31.917371-12.766948-38.300845 0C703.504227 196.542351 703.504227 202.925826 703.504227 209.3093c0 51.067794 0 95.752114 0 146.819908C703.504227 362.512682 703.504227 362.512682 703.504227 368.896156L703.504227 368.896156zM358.796618 266.760568C358.796618 266.760568 358.796618 266.760568 358.796618 266.760568c6.383474 6.383474 12.766948 6.383474 12.766948 12.766948 44.68432 44.68432 95.752114 82.985165 153.203382 108.519062 31.917371 12.766948 70.218217 31.917371 108.519062 31.917371 38.300845 0 82.985165 0 121.286011 0 0 0 0 0 6.383474 0l0-140.436433C824.790238 349.745733 895.008454 426.347424 958.843197 496.565641c-70.218217 70.218217-134.052959 146.819908-204.271176 217.038124 0 0 0-6.383474 0-6.383474 0-38.300845 0-82.985165 0-121.286011 0-6.383474 0-6.383474-6.383474-6.383474-19.150423 0-31.917371 0-51.067794 0-63.834742 0-127.669485-12.766948-185.120753-51.067794-76.601691-57.451268-127.669485-127.669485-153.203382-217.038124C358.796618 292.294465 358.796618 279.527516 358.796618 266.760568L358.796618 266.760568zM358.796618 266.760568"  horiz-adv-x="1024" />

    
    <glyph glyph-name="sousuo" unicode="&#58893;" d="M956.644451-68.818997 759.840156 105.773414c24.362874 30.449499 44.159756 64.295352 59.003835 101.023858 19.960611 49.389874 30.081109 101.82306 30.081109 155.844417s-10.121522 106.453521-30.081109 155.842371c-19.306718 47.77612-46.965661 90.696652-82.20321 127.572514-35.328623 36.973076-76.509535 66.020646-122.392538 86.328158-47.620577 21.078061-98.202603 31.766494-150.341077 31.766494S361.185644 753.463816 313.56609 732.384731c-45.884027-20.308535-87.064938-49.355081-122.393561-86.328158-35.239596-36.876885-62.894446-79.796394-82.205257-127.572514-19.960611-49.387827-30.081109-101.822037-30.081109-155.842371 0-54.021358 10.122545-106.454544 30.081109-155.844417 19.309788-47.775096 46.965661-90.695628 82.205257-127.569444 35.328623-36.975123 76.510558-66.021669 122.393561-86.327134 47.620577-21.080108 98.203626-31.766494 150.341077-31.766494s102.7205 10.686387 150.341077 31.766494c38.110993 16.867156 72.961732 39.783075 103.925954 68.242244l197.962677-175.61981c5.811356-5.155417 13.039991-7.691169 20.240997-7.691169 8.423857 0 16.811898 3.467985 22.841218 10.264784C970.405873-99.293055 969.252607-80.004757 956.644451-68.818997zM463.90819 22.171344c-178.644703 0-323.982836 152.73459-323.982836 340.469322 0 187.736778 145.338133 340.471368 323.982836 340.471368s323.981812-152.73459 323.981812-340.471368C787.888979 174.90491 642.550847 22.171344 463.90819 22.171344z"  horiz-adv-x="1024" />

    
    <glyph glyph-name="yiyuangoujilu" unicode="&#58900;" d="M395.226948 19.289714l0 81.699744L290.905998 100.989457l0 34.94079 104.32095 0 0 35.945677L290.905998 171.875924l0 37.204343 85.71929 0-102.05842 178.727591 50.276057 0 72.89931-129.7102c8.207939-14.746866 14.579043-27.649733 19.10308-38.71065 3.854794 8.880251 10.723226 22.537296 20.614503 40.974203l68.877717 127.446647 53.79316 0-101.806687-178.727591 85.720314 0 0-37.204343L440.474478 171.875924l0-35.945677 103.567797 0 0-34.94079L440.474478 100.989457l0-81.699744L395.226948 19.289714zM726.830345 19.289714l-45.248553 0L681.581792 307.618515c-10.894118-10.394744-25.179472-20.781302-42.860157-31.17093-17.681708-10.391674-33.558303-18.185174-47.635927-23.378453l0 43.738154c25.304316 11.896958 47.424102 26.309202 66.364477 43.237757 18.935258 16.925485 32.340569 33.348526 40.220027 49.270147l29.160133 0L726.830345 19.289714zM740.565161-111.099962 282.110681-111.099962c-63.597457 0-115.27442 54.243415-115.27442 122.397654L166.836261 491.163831c0 66.765613 51.676963 122.401748 116.602671 122.401748l0-51.465139c-37.102013 0-66.251913-31.988552-66.251913-69.543889l0-479.865115c0-38.947034 31.073716-72.736605 66.853617-72.736605l456.468243 0c37.09792 0 66.304102 35.183314 66.304102 72.736605L806.812981 491.163831c0 38.947034-30.474059 69.547982-66.24782 69.547982l-68.9033 0 0 26.424836-25.173332 0 0 22.25691-49.0266 0-7.951089 11.125385c-15.899108 23.64656-46.372144 37.553291-78.17343 37.553291-33.124422 0-62.274322-13.906731-78.1765-37.553291l-7.948019-11.125385-49.0266 0 0-22.25691-25.177426 0 0-24.888853-68.899206 0 0 51.316759 43.725874 0 0 47.289026 74.199932 0c26.499537 30.600949 66.251913 48.683792 109.974717 48.683792 43.724851 0 83.477226-18.082844 109.977787-48.683792l76.850295 0 0-48.677653 43.725874 0c63.597457 0 116.597555-54.247508 116.597555-122.402771l0-479.866139C855.839581-56.856547 804.162618-111.099962 740.565161-111.099962L740.565161-111.099962zM327.160713 525.939869l368.351346 0 0-51.465139L327.160713 474.47473 327.160713 525.939869 327.160713 525.939869zM325.837578 644.166527l49.0266 0 0-169.691797-49.0266 0.01535L325.837578 644.166527 325.837578 644.166527zM646.488529 641.384158l49.022507 0 0-166.909427-49.022507 0L646.488529 641.384158 646.488529 641.384158zM646.488529 641.384158"  horiz-adv-x="1024" />

    
    <glyph glyph-name="yanzhengma" unicode="&#58943;" d="M847.5815 456.861448l0-470.430232L173.92982-13.568784 173.92982 456.861448l22.455431 0 243.797585-260.352633 1.602498-1.601474c17.642822-17.643845 43.307342-28.869514 68.967768-28.869514 25.663496 0 49.725518 9.623171 68.970838 28.869514l1.602498 1.601474 243.798609 260.352633L847.5815 456.861448M863.622848 504.975259l-60.951187 0L544.438295 228.586394c-9.622148-9.622148-22.454408-14.435781-35.286668-14.435781-12.83226 0-25.664519 4.813632-35.286668 14.435781L215.631594 504.975259l-59.349713 0c-17.643845 0-32.077579-14.434757-32.077579-32.077579l0-502.507812c0-17.644869 14.433734-32.079626 32.077579-32.079626L862.016257-61.689758c17.643845 0 32.078603 14.433734 32.078603 32.079626L894.09486 472.897679C895.70145 490.540502 881.266693 504.975259 863.622848 504.975259L863.622848 504.975259 863.622848 504.975259zM799.463596 781.694651l0-276.719392c0-27.267017 20.852934-48.114834 48.117904-48.114834l0-470.430232L173.92982-13.569808 173.92982 456.861448c27.265994 0 48.114834 20.847817 48.114834 48.114834L222.044654 781.694651l577.422012 0M799.463596 829.814602 222.044654 829.814602c-27.267017 0-48.118927-20.852934-48.118927-48.118927l0-276.719392-16.037255 0c-17.642822 0-32.076556-14.434757-32.076556-32.077579l0-502.507812c0-17.644869 14.433734-32.079626 32.076556-32.079626L863.622848-61.688735c17.643845 0 32.078603 14.433734 32.078603 32.079626L895.70145 472.897679c0 17.642822-14.433734 32.077579-32.078603 32.077579l-16.041348 0L847.5815 781.694651C847.5815 808.960645 826.729589 829.814602 799.463596 829.814602L799.463596 829.814602 799.463596 829.814602zM270.163581 529.475256l0 48.117904 481.18518 0 0-48.117904L270.163581 529.475256 270.163581 529.475256zM270.163581 696.211744l481.18518 0 0-48.117904L270.163581 648.09384 270.163581 696.211744 270.163581 696.211744zM270.163581 696.211744"  horiz-adv-x="1024" />

    
    <glyph glyph-name="daifukuan1" unicode="&#58920;" d="M645.12 427.52m-40.96 0a1.6 1.6 0 1 0 81.92 0 1.6 1.6 0 1 0-81.92 0ZM952.32-33.28 2.56-33.28 2.56 832 952.32 832 952.32 614.4 926.72 614.4 926.72 806.4 28.16 806.4 28.16-7.68 926.72-7.68 926.72 212.48 952.32 212.48ZM1008.64 291.84l-506.88 0L501.76 563.2l506.88 0L1008.64 291.84zM529.92 317.44l455.68 0L985.6 537.6l-455.68 0L529.92 317.44z"  horiz-adv-x="1024" />

    
    <glyph glyph-name="daipingjia1" unicode="&#58921;" d="M502.303 733.783l-296.69 0c-66.848 0-119.252-51.169-119.252-116.366l0-552.526c0-31.36 11.969-59.007 34.662-78.814 21.458-19.392 51.58-29.708 84.59-29.708l550.875 0c32.188 0 59.011 10.316 77.578 29.297 18.569 19.393 28.059 46.628 28.059 79.226l-0.823 350.331c0 11.143-7.841 19.807-18.571 19.807-10.728 0-18.567-8.25-18.567-19.807l0-350.743c0-39.2-30.948-71.386-68.499-71.386L205.201-6.906c-18.569 0-39.614 7.841-55.292 21.046-17.333 14.028-27.235 32.598-27.235 50.752L122.674 617.417c0 18.568 9.902 38.375 27.235 54.469 16.504 15.679 37.136 25.17 55.704 25.17l296.69 0c11.14 0 19.806 7.841 19.806 18.569C522.11 726.355 513.444 733.783 502.303 733.783zM917.419 595.959c27.233 27.647 27.646 76.752 0 103.987l-89.956 90.368c-12.379 12.792-30.949 20.219-50.755 20.219-18.981 0-37.55-7.427-50.755-19.807l-73.036-86.655-389.945-373.44-25.174-218.699 7.018-6.189 212.92 28.887 372.614 390.77L917.419 595.959zM753.189 763.079c6.189 6.189 14.441 9.492 23.52 9.492s17.332-3.303 23.521-9.492l89.954-89.955c12.792-12.792 12.792-34.25 0-47.042l-56.943-56.946L696.656 706.136 753.189 763.079zM285.665 153.196l7.841 128.745 118.84-118.841L285.665 153.196zM799.404 545.618 443.296 186.621 314.964 315.362l359.41 358.175 126.269-126.268L799.404 545.618z"  horiz-adv-x="1024" />

    
    <glyph glyph-name="temai" unicode="&#58901;" d="M1160.431361 802.787255 877.092921 887.516469c-54.920468 16.57666-135.153697 8.224363-185.870602-19.500878l-631.119333-342.444195c-26.866252-15.242486-46.860592-40.427313-55.41393-68.993267-8.553337-29.297008-5.300145-61.353747 8.900588-87.891025l234.065368-436.366419c15.297315-26.884529 40.354207-47.098185 69.029819-55.688075 29.150797-8.498508 60.951667-5.208763 87.342734 9.083352L1035.49415 229.366397c49.766534 26.500725 101.671402 90.084188 117.937364 145.114314l84.308858 284.361917C1256.071563 719.849124 1221.255094 784.620551 1160.431361 802.787255L1160.431361 802.787255zM1191.135649 672.769216 1106.954726 388.297641c-12.555861-42.273225-55.651522-95.420886-94.068435-115.835582L380.889692-71.444246c-29.863576-16.339068-72.739921-3.61872-90.340057 27.487648l-234.065368 436.000892c-8.078152 14.986617-9.99717 33.884375-5.062552 50.479312 4.952894 16.704595 16.741148 31.490172 32.40399 40.445589L714.469852 825.175798c39.38556 21.310238 106.130834 28.456296 149.007179 15.608013L1146.431668 756.054597C1181.138479 745.527413 1201.516623 707.51258 1191.135649 672.769216L1191.135649 672.769216zM966.610542 621.558849c0 13.853482 5.702225 27.615583 15.42525 37.411713 9.741301 9.79613 23.448572 15.498355 37.228949 15.498355s27.487648-5.702225 37.228949-15.498355c9.723025-9.79613 15.42525-23.558231 15.42525-37.411713 0-13.835206-5.702225-27.615583-15.42525-37.393437-9.741301-9.79613-23.448572-15.498355-37.228949-15.498355s-27.487648 5.720501-37.228949 15.498355C972.29449 593.943266 966.610542 607.723643 966.610542 621.558849L966.610542 621.558849zM349.107099 308.411662c-19.043969 27.597307-45.288825 29.772194-73.361317 14.529708-22.772347-12.592413-41.322855-33.153321-26.866252-59.909915 13.487955-25.440696 48.194767-11.386174 85.167847-0.986924 36.735488 10.289592 75.536204 16.357344 97.21197-23.960311 23.503402-43.479465-9.759577-84.491622-46.97025-104.613896-45.76401-25.056892-96.499191-23.357191-123.475102 26.756594l25.897605 13.926588c18.550507-34.524048 55.176337-33.994033 86.118218-17.17978 24.691365 13.323468 47.701305 35.839946 31.80087 65.484205-15.059722 28.218703-50.351377 15.534908-86.977207 4.861512-36.625829-10.380974-74.439622-18.769824-94.817766 18.879482-22.516478 41.761487 4.459432 80.141847 41.79804 100.465162 41.925974 22.754071 84.327134 19.976064 110.352674-24.325838L349.107099 308.411662 349.107099 308.411662zM439.684749 435.286168l30.119445 16.357344 190.457969-162.202713-30.119445-16.467002-55.651522 49.876192-86.483745-46.97025 10.234763-74.311688-27.944558-15.242486L439.684749 435.286168 439.684749 435.286168zM484.132861 303.604979l69.395347 37.740688L467.994834 418.672954 467.391714 418.307427 484.132861 303.604979 484.132861 303.604979zM569.922104 505.960859l27.231779 14.767301 98.052682-182.416369 108.287445 58.703675 12.299992-23.119598-135.281632-73.379593L569.922104 505.960859 569.922104 505.960859zM729.273705 592.389775l141.203173 76.504851 12.537584-22.991663-113.934841-61.847209 35.054062-65.484205 106.368427 57.607093 12.299992-22.882005-106.185663-57.735028 38.087938-71.058495 115.049699 62.340671 12.281715-23.00994-142.025609-77.107971L729.273705 592.389775 729.273705 592.389775z"  horiz-adv-x="1243" />

    
    <glyph glyph-name="yanzhengma1" unicode="&#58944;" d="M790.349448 416.171042c-9.122224 0-16.298373-7.297779-16.298373-16.298373l0-63.490676 0-15.446965 0-104.358237c0-35.394227-28.096449-63.490676-63.490676-63.490676L305.898563 153.086115c-35.394227 0-63.490676 28.096449-63.490676 63.490676L242.407887 510.555648c0 14.473928 4.500297 27.245041 11.798076 37.218672l175.025062-175.025062L298.600784 241.997387c0 0 0-0.12163 0-0.12163-0.486519-0.486519-0.973037-0.973037-1.337926-1.459556-5.230075-6.568001-3.648889-16.541632 3.52726-22.258225 6.689631-5.351704 15.811854-5.108445 21.285188 0.12163 0 0 0.12163 0.12163 0.243259 0.12163L452.827177 349.031476c30.89393-25.420596 76.140159-24.447559 106.182682 3.648889l129.657204-127.954389c0.12163-0.243259 0.364889-0.364889 0.486519-0.486519 0 0 0.12163-0.12163 0.12163-0.12163 6.324742-6.081482 15.325336-8.149186 21.893337-2.797482 6.568001 5.351704 7.176149 14.473928 2.067704 22.014966-0.851408 1.216296-1.702815 2.189334-2.675852 3.162371 0 0-0.12163 0.12163-0.12163 0.12163L581.632973 375.30348l175.9981 177.822544c9.973631-10.825039 15.446965-25.420596 15.446965-40.867561l0-16.298373 0-16.298373c0-9.122224 7.297779-16.298373 16.298373-16.298373 9.122224 0 16.298373 7.297779 16.298373 16.298373l0 48.043711c0 29.920893-17.27141 56.192897-41.718969 69.815418-0.851408 1.824445-1.824445-0.851408-6.324742 1.824445-5.473334 2.675852 1.824445 0 1.824445 0-9.973631 4.500297-21.771707 7.297779-33.569783 7.297779L289.60019 606.643069c-44.394821 0-79.789049-36.245635-79.789049-79.789049l0-325.602566c0-44.394821 36.245635-79.789049 79.789049-79.789049l437.258582 0c44.394821 0 79.789049 36.245635 79.789049 79.789049L806.64782 336.381993l0 63.490676C806.64782 408.873263 799.350042 416.171042 790.349448 416.171042zM305.898563 574.046324l404.540207 0c7.297779 0 14.473928-0.851408 21.771707-3.648889L549.036228 387.101556c-24.447559-24.447559-65.315121-24.447559-89.76268 0L278.653522 567.721582C286.924338 572.221879 295.924932 574.046324 305.898563 574.046324z"  horiz-adv-x="1024" />

    
    <glyph glyph-name="icecream2l" unicode="&#58902;" d="M724.253 652.193c46.049-33.859 85.412-78.403 116.935-130.009 5.937-9.72-40.464 34.871-75.281 63.101-34.818 28.23-45.706 24.131-55.52 20.702-35.544-12.419-24.416-112.074-32.962-121.841-10.866-12.419-100.663 85.643-131.95 85.643-31.909 0-20.181-112.033-31.909-112.033-14.662 0-49.826 126.987-73.173 137.1-25.7 11.131-36.408 5.925-56.754-9.571-20.346-15.496-64.847-85.733-76.029-85.733-20.346-0 18.204 90.382-16.062 106.435-34.266 16.053-94.69-58.048-83.524-44.327 88.878 109.224 174.255 160.452 305.542 160.452 73.349 0 139.313-21.916 195.931-59.592-2.587-1.733-4.29-4.683-4.29-8.031 0-5.335 4.325-9.66 9.66-9.66 4.544 0 8.354 3.137 9.385 7.363v0zM565.278 757.211c69.931-9.38 133.889-36.96 186.657-77.667l110.361 191.15c5.38 9.318 17.218 12.522 26.459 7.186 9.305-5.372 12.378-17.203 7.006-26.507l-113.965-197.393c42.233-40.067 75.067-89.461 94.986-144.761 4.941-13.717-1.86-23.121-16.348-24.388-11.668-1.020 16.244-0.004 16.348-119.025 25.942 0 40.955 0 40.955 0 0-158.641-165.871-288.579-376.132-299.812-9.267-0.495-11.196-140.74-26.888-155.354h113.076c10.76 0 19.453-8.65 19.453-19.321 0-10.745-8.709-19.321-19.453-19.321h-231.585c-10.76 0-19.453 8.65-19.453 19.321 0 10.745 8.709 19.321 19.453 19.321h113.095c-15.457 14.61-15.113 154.79-23.243 155.17-211.994 9.91-379.796 140.435-379.796 299.996 0 0 14.086 0 38.546 0h0c0.156 99.977 35.426 154.239 35.426 155.298 0 1.061-26.699 5.191-20.486 18.548 53.644 115.342 165.414 199.643 298.972 217.557-3.014 7.015-4.684 14.745-4.684 22.864 0 32.012 25.951 57.962 57.962 57.962 32.012 0 57.962-25.951 57.962-57.962 0-8.119-1.669-15.849-4.684-22.864v0zM512 103.849c192.883 0 351.021 101.783 365.943 231.132 0-0.591-731.817-0.591-731.817-0.591 15.335-129.068 173.285-230.541 365.874-230.541zM840.215 365.321c0 40.669-3.622 79.157-20.014 114.448-14.075 30.302-79.678 90.861-92.259 85.376-12.581-5.485-6.142-121.864-36.344-126.613-28.46-4.475-112.528 88.764-130.7 83.173-15.639-4.812-8.387-106.874-43.334-108.334-34.946-1.461-72.884 151.774-95.054 151.774-43.334 0-90.75-113.246-128.842-109.986-38.092 3.26-10.491 97.809-19.17 109.986-9.086 12.749-33.484-17.596-38.441-23.764-41.784-51.995-51.304-103.67-51.304-176.060h655.462zM512 760.755c10.671 0 19.321 8.65 19.321 19.321s-8.65 19.321-19.321 19.321c-10.671 0-19.321-8.65-19.321-19.321 0-10.671 8.65-19.321 19.321-19.321zM502.34 683.472c5.335 0 9.66 4.325 9.66 9.66 0 5.335-4.325 9.66-9.66 9.66-5.335 0-9.66-4.325-9.66-9.66 0-5.335 4.325-9.66 9.66-9.66zM386.415 625.509c5.335 0 9.66 4.325 9.66 9.66 0 5.335-4.325 9.66-9.66 9.66-5.335 0-9.66-4.325-9.66-9.66 0-5.335 4.325-9.66 9.66-9.66zM309.132 625.509c5.335 0 9.66 4.325 9.66 9.66 0 5.335-4.325 9.66-9.66 9.66-5.335 0-9.66-4.325-9.66-9.66 0-5.335 4.325-9.66 9.66-9.66zM328.453 567.547c5.335 0 9.66 4.325 9.66 9.66 0 5.335-4.325 9.66-9.66 9.66-5.335 0-9.66-4.325-9.66-9.66 0-5.335 4.325-9.66 9.66-9.66zM618.264 664.151c5.335 0 9.66 4.325 9.66 9.66s-4.325 9.66-9.66 9.66c-5.335 0-9.66-4.325-9.66-9.66 0-5.335 4.325-9.66 9.66-9.66zM502.34 509.585c5.335 0 9.66 4.325 9.66 9.66 0 5.335-4.325 9.66-9.66 9.66-5.335 0-9.66-4.325-9.66-9.66 0-5.335 4.325-9.66 9.66-9.66zM656.906 509.585c5.335 0 9.66 4.325 9.66 9.66 0 5.335-4.325 9.66-9.66 9.66-5.335 0-9.66-4.325-9.66-9.66 0-5.335 4.325-9.66 9.66-9.66zM598.943 567.547c5.335 0 9.66 4.325 9.66 9.66 0 5.335-4.325 9.66-9.66 9.66-5.335 0-9.66-4.325-9.66-9.66 0-5.335 4.325-9.66 9.66-9.66zM502.34 586.868c5.335 0 9.66 4.325 9.66 9.66 0 5.335-4.325 9.66-9.66 9.66-5.335 0-9.66-4.325-9.66-9.66 0-5.335 4.325-9.66 9.66-9.66zM656.906 606.189c5.335 0 9.66 4.325 9.66 9.66s-4.325 9.66-9.66 9.66c-5.335 0-9.66-4.325-9.66-9.66 0-5.335 4.325-9.66 9.66-9.66zM560.302 644.83c5.335 0 9.66 4.325 9.66 9.66 0 5.335-4.325 9.66-9.66 9.66-5.335 0-9.66-4.325-9.66-9.66 0-5.335 4.325-9.66 9.66-9.66zM444.377 664.151c5.335 0 9.66 4.325 9.66 9.66s-4.325 9.66-9.66 9.66c-5.335 0-9.66-4.325-9.66-9.66 0-5.335 4.325-9.66 9.66-9.66z"  horiz-adv-x="1024" />

    
    <glyph glyph-name="qq" unicode="&#58894;" d="M458.156186 826.427458C331.794244 798.310074 243.519758 694.372863 233.196645 562.672332c-1.067308-16.374946-3.560082-29.54285-5.339612-29.54285-5.339612 0-17.08512-22.782889-17.08512-33.107025 0-5.339612-2.492774-13.880125-5.696746-18.506493-4.26821-6.764054-5.338588-14.950504-4.26821-34.528398l1.421372-25.983791-22.424732-29.54592c-54.81749-71.900563-76.172867-148.428517-59.797921-212.499765 7.473205-28.121478 12.099572-32.744775 26.696012-26.697035 11.391445 4.630461 40.934295 35.240619 47.340191 49.124837 3.914146 8.53642 9.611915 10.6782 9.611915 3.559059 0-8.543583 21.710464-50.548256 37.7293-73.330122 8.898671-12.458753 15.663748-23.13593 14.950504-23.491017-0.355087-0.709151-7.473205-4.623297-15.304568-8.544607-29.188786-14.947434-42.00058-36.658921-42.35976-73.678046-0.355087-12.812817 1.779529-21.002336 6.764054-28.121478 3.913123-5.692652 8.898671-13.165858 11.032264-16.72594 12.45773-21.357424 35.240619-32.035624 82.934874-39.154765 35.594683-4.985548 60.157101-2.850931 130.279159 11.032264 70.831208 13.883195 100.374058 13.883195 174.060291-0.709151 104.287181-20.648272 167.650301-13.882172 201.109344 21.3564 24.917506 27.052123 32.389688 49.116651 23.846104 70.120011-2.845815 6.408967-4.269233 12.812817-3.206018 13.528108 0.717338 1.064238-1.063215 6.757914-3.913123 12.812817-6.763031 12.458753-23.846104 26.341948-42.35976 34.170241l-12.811794 5.338588 18.86772 27.767414c10.321066 15.301498 23.13593 39.154765 28.828582 53.393048l9.967002 25.625634 13.170974-20.286022c13.882172-21.357424 33.101909-41.294498 43.422975-44.854581 14.953573-5.339612 27.41335 25.631774 30.255071 74.039273 1.425466 25.625634 0.358157 38.444591-5.693676 62.290695-8.54256 35.240619-36.303834 92.548836-58.376549 122.091686-15.301498 20.289092-15.659655 20.289092-12.099572 39.153742 4.27128 24.204262-1.421372 53.03489-15.305591 75.103512-8.544607 13.170974-11.390421 23.136953-14.236236 47.699372C792.034393 687.607786 710.523961 785.1391 596.974835 821.446004 563.868833 832.125227 494.464113 834.613908 458.156186 826.427458zM611.569228 698.287009c15.661701-10.320043 27.050076-34.882462 29.185716-61.578474 5.697769-82.58081-58.372455-121.376395-92.545766-55.884798-11.745509 21.714558-11.390421 68.697615 0.358157 92.191702C562.089303 701.133847 590.211804 712.170205 611.569228 698.287009zM462.069309 694.726927c16.017812-10.679223 27.409257-34.882462 29.188786-63.358003 1.779529-32.034601-3.560082-52.324716-19.22383-69.409836-14.237259-16.017812-28.829606-20.290115-45.201481-13.170974-25.628704 11.036357-39.154765 37.020148-39.154765 76.887135 0 29.896914 8.540514 52.321646 25.270547 66.558905C424.695097 702.204226 448.899358 703.270511 462.069309 694.726927zM615.839485 522.805346c46.272883-11.745509 96.818069-37.7293 96.818069-50.187029 0-6.764054-31.324426-26.696012-50.54621-32.035624-11.392468-3.560082-11.036357-2.491751 3.560082 17.08512 12.81691 17.08512 7.477298 17.439184-14.238282 1.067308-79.020728-59.443857-174.413332-60.865229-251.297396-3.206018-10.6782 7.832386-19.935028 13.529131-20.647249 12.458753-1.067308-0.709151 1.779529-7.473205 6.051833-14.592346 4.272303-7.119141 6.764054-13.883195 5.696746-14.950504-2.492774-2.491751-32.035624 10.323113-45.205575 19.935028-6.051833 4.26821-10.6782 10.679223-10.6782 14.59337 0 14.94948 64.782446 44.138266 120.664174 54.81749C494.464113 535.263076 576.686766 532.417261 615.839485 522.805346zM385.898489 398.223956c29.54285-10.324136 81.868589-18.151405 119.242801-18.151405 22.423709 0 33.102932-1.425466 33.102932-4.272303 0-5.338588-70.123081-1.424442-108.922758 6.052856-30.610158 5.692652-61.932538 15.304568-66.918086 19.930935C356.710726 406.76754 364.183931 405.697161 385.898489 398.223956zM589.855694 380.072551c-5.692652-1.425466-19.576871-2.492774-30.255071-2.492774l-19.575848 0 21.3564 2.492774c11.746532 1.421372 25.270547 2.488681 30.254048 2.488681C599.464539 382.918365 599.110475 382.561231 589.855694 380.072551zM302.251394 327.387631c2.846838-1.779529 2.133593-14.238282-2.850931-48.762587-8.540514-57.30617-6.760984-79.377862 8.18952-96.104825 13.525038-15.663748 37.016055-24.207331 66.558905-24.562419 49.123814-0.708128 53.750181 5.693676 53.750181 74.749448l0 45.209668 29.54285-3.204995c107.497293-11.394515 211.075323 10.324136 286.896172 60.865229 10.679223 7.119141 20.640086 11.387351 22.066575 9.969049 13.170974-13.174044 18.149359-99.66593 8.544607-138.110521-28.476565-109.98802-126.361943-187.582259-243.824191-192.920848-82.58081-3.921309-150.211117 21.3564-206.449979 77.238129-42.713824 42.714847-67.275219 93.25594-72.968895 151.632489-2.492774 27.412326 2.846838 73.686233 11.033287 93.263104l4.984524 11.742439 14.950504-9.252735C291.215036 334.151685 299.75862 328.812073 302.251394 327.387631zM271.638165 89.618343c2.846838-3.206018 10.679223-9.614985 17.442254-13.882172 6.760984-4.630461 18.86465-14.238282 27.051099-21.713534 7.831362-7.834432 25.983791-23.13593 39.865963-34.530444 18.510586-14.945387 25.628704-23.13593 25.628704-28.830629 0-10.6782-7.118118-12.812817-49.119721-12.812817-58.731636 0-103.937211 16.371876-115.328655 41.289382-3.913123 8.188496-3.203972 11.747555 4.985548 26.696012 8.540514 16.371876 8.897647 17.443277 2.488681 19.222807-8.898671 2.849908-4.981455 9.607822 11.036357 21.355377C250.280742 96.382397 264.877181 97.800699 271.638165 89.618343zM786.693758 90.327494c19.934005-10.32516 27.76332-27.051099 12.459776-27.051099-4.982478 0-4.982478-1.071402 0.711198-7.119141 3.560082-3.91517 7.119141-14.59337 8.18645-24.207331 1.421372-16.017812 0.713244-17.798365-11.390421-28.476565-19.932981-17.435091-46.27493-23.845081-97.532337-23.13593-32.743752 0-45.557592 1.425466-49.116651 5.339612-7.477298 7.119141 1.063215 17.443277 26.337855 31.68156 31.676443 18.151405 44.134173 27.76639 48.411593 35.948747 2.134617 4.275373 8.897647 8.898671 14.945387 10.679223 7.119141 1.779529 14.592346 7.834432 21.00336 17.087167C771.744277 97.091548 773.169743 97.447658 786.693758 90.327494zM565.649386 647.741823c-8.540514-9.252735-13.879102-25.983791-11.387351-35.594683 2.846838-11.745509 9.607822-8.18645 14.236236 8.543583 4.628414 17.443277 18.153452 21.712511 21.357424 7.119141l3.560082-18.509563c3.560082-16.017812 10.679223-7.474228 10.679223 12.815887-0.354064 15.304568-1.779529 19.930935-8.543583 25.270547C585.226257 655.930319 573.126684 655.930319 565.649386 647.741823zM444.272991 650.946818c-13.880125-15.305591-12.812817-44.848441 2.137687-55.526641 11.032264-7.477298 16.017812-6.764054 25.983791 3.560082 6.759961 6.405897 8.898671 12.45773 8.898671 24.916483C481.293139 650.591731 458.868407 666.963607 444.272991 650.946818zM468.834386 628.877173c0-9.967002-10.324136-13.525038-13.883195-4.627391-2.491751 6.765077 3.918239 16.731056 9.965979 14.59337C467.053834 638.134001 468.834386 633.861698 468.834386 628.877173L468.834386 628.877173z"  horiz-adv-x="1024" />

    
    <glyph glyph-name="liebiaoxianshi" unicode="&#58928;" d="M96 719.9724 96 719.9724 96 528.0276C96 483.84353 131.838479 448 176.0276 448L367.9724 448C412.15647 448 448 483.838478 448 528.0276L448 719.9724C448 764.156471 412.161522 800 367.9724 800L176.0276 800C131.843529 800 96 764.161521 96 719.9724L96 719.9724ZM64 719.9724C64 781.843535 114.17932 832 176.0276 832L367.9724 832C429.843536 832 480 781.82068 480 719.9724L480 528.0276C480 466.156464 429.82068 416 367.9724 416L176.0276 416C114.156465 416 64 466.17932 64 528.0276L64 719.9724ZM560.613282 672 944.166992 672C953.003549 672 960.166992 679.163445 960.166992 688 960.166992 696.836555 953.003549 704 944.166992 704L560.613282 704C551.776725 704 544.613282 696.836555 544.613282 688 544.613282 679.163445 551.776725 672 560.613282 672ZM560.613282 224 944.166992 224C953.003549 224 960.166992 231.163445 960.166992 240 960.166992 248.836555 953.003549 256 944.166992 256L560.613282 256C551.776725 256 544.613282 248.836555 544.613282 240 544.613282 231.163445 551.776725 224 560.613282 224ZM560.613282 512 944.166992 512C953.003549 512 960.166992 519.163445 960.166992 528 960.166992 536.836555 953.003549 544 944.166992 544L560.613282 544C551.776725 544 544.613282 536.836555 544.613282 528 544.613282 519.163445 551.776725 512 560.613282 512ZM560.613282 64 944.166992 64C953.003549 64 960.166992 71.163445 960.166992 80 960.166992 88.836555 953.003549 96 944.166992 96L560.613282 96C551.776725 96 544.613282 88.836555 544.613282 80 544.613282 71.163445 551.776725 64 560.613282 64ZM96 239.9724 96 48.0276C96 3.84353 131.838479-32 176.0276-32L367.9724-32C412.15647-32 448 3.838478 448 48.0276L448 239.9724C448 284.15647 412.161522 320 367.9724 320L176.0276 320C131.843529 320 96 284.161522 96 239.9724ZM64 239.9724C64 301.843536 114.17932 352 176.0276 352L367.9724 352C429.843536 352 480 301.82068 480 239.9724L480 48.0276C480-13.843536 429.82068-64 367.9724-64L176.0276-64C114.156465-64 64-13.82068 64 48.0276L64 239.9724 64 239.9724Z"  horiz-adv-x="1024" />

    
    </font>
</defs>
</svg>
